<?xml version="1.0" encoding="utf-8" standalone="no"?>
<!DOCTYPE svg PUBLIC "-//W3C//DTD SVG 1.1//EN"
  "http://www.w3.org/Graphics/SVG/1.1/DTD/svg11.dtd">
<!-- Created with matplotlib (http://matplotlib.org/) -->
<svg height="345pt" version="1.1" viewBox="0 0 460 345" width="460pt" xmlns="http://www.w3.org/2000/svg" xmlns:xlink="http://www.w3.org/1999/xlink">
 <defs>
  <style type="text/css">
*{stroke-linecap:butt;stroke-linejoin:round;}
  </style>
 </defs>
 <g id="figure_1">
  <g id="patch_1">
   <path d="M 0 345.6 
L 460.8 345.6 
L 460.8 0 
L 0 0 
z
" style="fill:#ffffff;"/>
  </g>
  <g id="axes_1">
   <g id="PathCollection_1">
    <defs>
     <path d="M 0 3 
C 0.795609 3 1.55874 2.683901 2.12132 2.12132 
C 2.683901 1.55874 3 0.795609 3 0 
C 3 -0.795609 2.683901 -1.55874 2.12132 -2.12132 
C 1.55874 -2.683901 0.795609 -3 0 -3 
C -0.795609 -3 -1.55874 -2.683901 -2.12132 -2.12132 
C -2.683901 -1.55874 -3 -0.795609 -3 0 
C -3 0.795609 -2.683901 1.55874 -2.12132 2.12132 
C -1.55874 2.683901 -0.795609 3 0 3 
z
" id="m57c23f571c" style="stroke:#000000;"/>
    </defs>
    <g clip-path="url(#p1073bc5588)">
     <use style="stroke:#000000;" x="303.321884" xlink:href="#m57c23f571c" y="217.703497"/>
     <use style="stroke:#000000;" x="197.781781" xlink:href="#m57c23f571c" y="174.528"/>
     <use style="stroke:#000000;" x="226.565445" xlink:href="#m57c23f571c" y="208.108942"/>
     <use style="stroke:#000000;" x="168.998116" xlink:href="#m57c23f571c" y="184.122555"/>
     <use style="stroke:#000000;" x="293.727329" xlink:href="#m57c23f571c" y="145.744335"/>
     <use style="stroke:#000000;" x="197.781781" xlink:href="#m57c23f571c" y="222.500774"/>
     <use style="stroke:#000000;" x="308.119161" xlink:href="#m57c23f571c" y="116.960671"/>
     <use style="stroke:#000000;" x="173.795394" xlink:href="#m57c23f571c" y="107.366116"/>
     <use style="stroke:#000000;" x="303.321884" xlink:href="#m57c23f571c" y="112.163394"/>
     <use style="stroke:#000000;" x="231.362723" xlink:href="#m57c23f571c" y="188.919832"/>
    </g>
   </g>
   <g id="PathCollection_2">
    <defs>
     <path d="M 0 3 
C 0.795609 3 1.55874 2.683901 2.12132 2.12132 
C 2.683901 1.55874 3 0.795609 3 0 
C 3 -0.795609 2.683901 -1.55874 2.12132 -2.12132 
C 1.55874 -2.683901 0.795609 -3 0 -3 
C -0.795609 -3 -1.55874 -2.683901 -2.12132 -2.12132 
C -2.683901 -1.55874 -3 -0.795609 -3 0 
C -3 0.795609 -2.683901 1.55874 -2.12132 2.12132 
C -1.55874 2.683901 -0.795609 3 0 3 
z
" id="m35c173f65c" style="stroke:#ffffff;"/>
    </defs>
    <g clip-path="url(#p1073bc5588)">
     <use style="fill:#ffffff;stroke:#ffffff;" x="116.228065" xlink:href="#m35c173f65c" y="294.459935"/>
     <use style="fill:#ffffff;stroke:#ffffff;" x="116.228065" xlink:href="#m35c173f65c" y="54.596065"/>
     <use style="fill:#ffffff;stroke:#ffffff;" x="356.091935" xlink:href="#m35c173f65c" y="294.459935"/>
     <use style="fill:#ffffff;stroke:#ffffff;" x="356.091935" xlink:href="#m35c173f65c" y="54.596065"/>
    </g>
   </g>
  </g>
 </g>
 <defs>
  <clipPath id="p1073bc5588">
   <rect height="266.112" width="357.12" x="57.6" y="41.472"/>
  </clipPath>
 </defs>
</svg>
