<?xml version="1.0" encoding="utf-8" standalone="no"?>
<!DOCTYPE svg PUBLIC "-//W3C//DTD SVG 1.1//EN"
  "http://www.w3.org/Graphics/SVG/1.1/DTD/svg11.dtd">
<!-- Created with matplotlib (http://matplotlib.org/) -->
<svg height="345pt" version="1.1" viewBox="0 0 460 345" width="460pt" xmlns="http://www.w3.org/2000/svg" xmlns:xlink="http://www.w3.org/1999/xlink">
 <defs>
  <style type="text/css">
*{stroke-linecap:butt;stroke-linejoin:round;}
  </style>
 </defs>
 <g id="figure_1">
  <g id="patch_1">
   <path d="M 0 345.6 
L 460.8 345.6 
L 460.8 0 
L 0 0 
z
" style="fill:#ffffff;"/>
  </g>
  <g id="axes_1">
   <g id="PathCollection_1">
    <defs>
     <path d="M 0 3 
C 0.795609 3 1.55874 2.683901 2.12132 2.12132 
C 2.683901 1.55874 3 0.795609 3 0 
C 3 -0.795609 2.683901 -1.55874 2.12132 -2.12132 
C 1.55874 -2.683901 0.795609 -3 0 -3 
C -0.795609 -3 -1.55874 -2.683901 -2.12132 -2.12132 
C -2.683901 -1.55874 -3 -0.795609 -3 0 
C -3 0.795609 -2.683901 1.55874 -2.12132 2.12132 
C -1.55874 2.683901 -0.795609 3 0 3 
z
" id="m10aee6d5a5" style="stroke:#000000;"/>
    </defs>
    <g clip-path="url(#p77610fd7a0)">
     <use style="stroke:#000000;" x="293.706951" xlink:href="#m10aee6d5a5" y="227.279372"/>
     <use style="stroke:#000000;" x="197.795366" xlink:href="#m10aee6d5a5" y="179.323579"/>
     <use style="stroke:#000000;" x="226.568841" xlink:href="#m10aee6d5a5" y="203.301476"/>
     <use style="stroke:#000000;" x="173.817469" xlink:href="#m10aee6d5a5" y="179.323579"/>
     <use style="stroke:#000000;" x="298.502531" xlink:href="#m10aee6d5a5" y="145.754524"/>
     <use style="stroke:#000000;" x="192.999787" xlink:href="#m10aee6d5a5" y="227.279372"/>
     <use style="stroke:#000000;" x="346.458323" xlink:href="#m10aee6d5a5" y="188.914738"/>
     <use style="stroke:#000000;" x="173.817469" xlink:href="#m10aee6d5a5" y="107.38989"/>
     <use style="stroke:#000000;" x="303.29811" xlink:href="#m10aee6d5a5" y="112.185469"/>
     <use style="stroke:#000000;" x="231.364421" xlink:href="#m10aee6d5a5" y="188.914738"/>
    </g>
   </g>
   <g id="PathCollection_2">
    <defs>
     <path d="M 0 3 
C 0.795609 3 1.55874 2.683901 2.12132 2.12132 
C 2.683901 1.55874 3 0.795609 3 0 
C 3 -0.795609 2.683901 -1.55874 2.12132 -2.12132 
C 1.55874 -2.683901 0.795609 -3 0 -3 
C -0.795609 -3 -1.55874 -2.683901 -2.12132 -2.12132 
C -2.683901 -1.55874 -3 -0.795609 -3 0 
C -3 0.795609 -2.683901 1.55874 -2.12132 2.12132 
C -1.55874 2.683901 -0.795609 3 0 3 
z
" id="maf7fc93f38" style="stroke:#ffffff;"/>
    </defs>
    <g clip-path="url(#p77610fd7a0)">
     <use style="fill:#ffffff;stroke:#ffffff;" x="116.270518" xlink:href="#maf7fc93f38" y="294.417482"/>
     <use style="fill:#ffffff;stroke:#ffffff;" x="116.270518" xlink:href="#maf7fc93f38" y="54.638518"/>
     <use style="fill:#ffffff;stroke:#ffffff;" x="356.049482" xlink:href="#maf7fc93f38" y="294.417482"/>
     <use style="fill:#ffffff;stroke:#ffffff;" x="356.049482" xlink:href="#maf7fc93f38" y="54.638518"/>
    </g>
   </g>
  </g>
 </g>
 <defs>
  <clipPath id="p77610fd7a0">
   <rect height="266.112" width="357.12" x="57.6" y="41.472"/>
  </clipPath>
 </defs>
</svg>
