<?xml version="1.0" encoding="utf-8" standalone="no"?>
<!DOCTYPE svg PUBLIC "-//W3C//DTD SVG 1.1//EN"
  "http://www.w3.org/Graphics/SVG/1.1/DTD/svg11.dtd">
<!-- Created with matplotlib (http://matplotlib.org/) -->
<svg height="345pt" version="1.1" viewBox="0 0 460 345" width="460pt" xmlns="http://www.w3.org/2000/svg" xmlns:xlink="http://www.w3.org/1999/xlink">
 <defs>
  <style type="text/css">
*{stroke-linecap:butt;stroke-linejoin:round;}
  </style>
 </defs>
 <g id="figure_1">
  <g id="patch_1">
   <path d="M 0 345.6 
L 460.8 345.6 
L 460.8 0 
L 0 0 
z
" style="fill:#ffffff;"/>
  </g>
  <g id="axes_1">
   <g id="PathCollection_1">
    <defs>
     <path d="M 0 3 
C 0.795609 3 1.55874 2.683901 2.12132 2.12132 
C 2.683901 1.55874 3 0.795609 3 0 
C 3 -0.795609 2.683901 -1.55874 2.12132 -2.12132 
C 1.55874 -2.683901 0.795609 -3 0 -3 
C -0.795609 -3 -1.55874 -2.683901 -2.12132 -2.12132 
C -2.683901 -1.55874 -3 -0.795609 -3 0 
C -3 0.795609 -2.683901 1.55874 -2.12132 2.12132 
C -1.55874 2.683901 -0.795609 3 0 3 
z
" id="m356d8c418c" style="stroke:#000000;"/>
    </defs>
    <g clip-path="url(#pba42174b5e)">
     <use style="stroke:#000000;" x="303.250612" xlink:href="#m356d8c418c" y="217.657679"/>
     <use style="stroke:#000000;" x="202.614694" xlink:href="#m356d8c418c" y="174.528"/>
     <use style="stroke:#000000;" x="221.78344" xlink:href="#m356d8c418c" y="198.488933"/>
     <use style="stroke:#000000;" x="173.861575" xlink:href="#m356d8c418c" y="179.320187"/>
     <use style="stroke:#000000;" x="298.458425" xlink:href="#m356d8c418c" y="145.774881"/>
     <use style="stroke:#000000;" x="193.030321" xlink:href="#m356d8c418c" y="217.657679"/>
     <use style="stroke:#000000;" x="303.250612" xlink:href="#m356d8c418c" y="121.813948"/>
     <use style="stroke:#000000;" x="173.861575" xlink:href="#m356d8c418c" y="107.437388"/>
     <use style="stroke:#000000;" x="260.120933" xlink:href="#m356d8c418c" y="88.268642"/>
     <use style="stroke:#000000;" x="236.16" xlink:href="#m356d8c418c" y="179.320187"/>
    </g>
   </g>
   <g id="PathCollection_2">
    <defs>
     <path d="M 0 3 
C 0.795609 3 1.55874 2.683901 2.12132 2.12132 
C 2.683901 1.55874 3 0.795609 3 0 
C 3 -0.795609 2.683901 -1.55874 2.12132 -2.12132 
C 1.55874 -2.683901 0.795609 -3 0 -3 
C -0.795609 -3 -1.55874 -2.683901 -2.12132 -2.12132 
C -2.683901 -1.55874 -3 -0.795609 -3 0 
C -3 0.795609 -2.683901 1.55874 -2.12132 2.12132 
C -1.55874 2.683901 -0.795609 3 0 3 
z
" id="me2dea58896" style="stroke:#ffffff;"/>
    </defs>
    <g clip-path="url(#pba42174b5e)">
     <use style="fill:#ffffff;stroke:#ffffff;" x="116.355336" xlink:href="#me2dea58896" y="294.332664"/>
     <use style="fill:#ffffff;stroke:#ffffff;" x="116.355336" xlink:href="#me2dea58896" y="54.723336"/>
     <use style="fill:#ffffff;stroke:#ffffff;" x="355.964664" xlink:href="#me2dea58896" y="294.332664"/>
     <use style="fill:#ffffff;stroke:#ffffff;" x="355.964664" xlink:href="#me2dea58896" y="54.723336"/>
    </g>
   </g>
  </g>
 </g>
 <defs>
  <clipPath id="pba42174b5e">
   <rect height="266.112" width="357.12" x="57.6" y="41.472"/>
  </clipPath>
 </defs>
</svg>
