<?xml version="1.0" encoding="utf-8" standalone="no"?>
<!DOCTYPE svg PUBLIC "-//W3C//DTD SVG 1.1//EN"
  "http://www.w3.org/Graphics/SVG/1.1/DTD/svg11.dtd">
<!-- Created with matplotlib (http://matplotlib.org/) -->
<svg height="345pt" version="1.1" viewBox="0 0 460 345" width="460pt" xmlns="http://www.w3.org/2000/svg" xmlns:xlink="http://www.w3.org/1999/xlink">
 <defs>
  <style type="text/css">
*{stroke-linecap:butt;stroke-linejoin:round;}
  </style>
 </defs>
 <g id="figure_1">
  <g id="patch_1">
   <path d="M 0 345.6 
L 460.8 345.6 
L 460.8 0 
L 0 0 
z
" style="fill:#ffffff;"/>
  </g>
  <g id="axes_1">
   <g id="PathCollection_1">
    <defs>
     <path d="M 0 3 
C 0.795609 3 1.55874 2.683901 2.12132 2.12132 
C 2.683901 1.55874 3 0.795609 3 0 
C 3 -0.795609 2.683901 -1.55874 2.12132 -2.12132 
C 1.55874 -2.683901 0.795609 -3 0 -3 
C -0.795609 -3 -1.55874 -2.683901 -2.12132 -2.12132 
C -2.683901 -1.55874 -3 -0.795609 -3 0 
C -3 0.795609 -2.683901 1.55874 -2.12132 2.12132 
C -1.55874 2.683901 -0.795609 3 0 3 
z
" id="mcba1d4f526" style="stroke:#ffffff;"/>
    </defs>
    <g clip-path="url(#p6b4313c09d)">
     <use style="fill:#ffffff;stroke:#ffffff;" x="115.20432" xlink:href="#mcba1d4f526" y="295.48368"/>
     <use style="fill:#ffffff;stroke:#ffffff;" x="115.20432" xlink:href="#mcba1d4f526" y="53.57232"/>
     <use style="fill:#ffffff;stroke:#ffffff;" x="357.11568" xlink:href="#mcba1d4f526" y="295.48368"/>
     <use style="fill:#ffffff;stroke:#ffffff;" x="357.11568" xlink:href="#mcba1d4f526" y="53.57232"/>
    </g>
   </g>
   <g id="PathCollection_2">
    <defs>
     <path d="M 0 3 
C 0.795609 3 1.55874 2.683901 2.12132 2.12132 
C 2.683901 1.55874 3 0.795609 3 0 
C 3 -0.795609 2.683901 -1.55874 2.12132 -2.12132 
C 1.55874 -2.683901 0.795609 -3 0 -3 
C -0.795609 -3 -1.55874 -2.683901 -2.12132 -2.12132 
C -2.683901 -1.55874 -3 -0.795609 -3 0 
C -3 0.795609 -2.683901 1.55874 -2.12132 2.12132 
C -1.55874 2.683901 -0.795609 3 0 3 
z
" id="m80f0ccfe19" style="stroke:#000000;"/>
    </defs>
    <g clip-path="url(#p6b4313c09d)">
     <use style="stroke:#000000;" x="294.218726" xlink:href="#m80f0ccfe19" y="218.072045"/>
     <use style="stroke:#000000;" x="245.836454" xlink:href="#m80f0ccfe19" y="130.983955"/>
     <use style="stroke:#000000;" x="236.16" xlink:href="#m80f0ccfe19" y="256.777863"/>
     <use style="stroke:#000000;" x="308.733408" xlink:href="#m80f0ccfe19" y="237.424954"/>
     <use style="stroke:#000000;" x="231.321773" xlink:href="#m80f0ccfe19" y="222.910272"/>
     <use style="stroke:#000000;" x="163.586592" xlink:href="#m80f0ccfe19" y="140.66041"/>
     <use style="stroke:#000000;" x="197.454182" xlink:href="#m80f0ccfe19" y="208.39559"/>
     <use style="stroke:#000000;" x="260.351136" xlink:href="#m80f0ccfe19" y="203.557363"/>
     <use style="stroke:#000000;" x="299.056954" xlink:href="#m80f0ccfe19" y="218.072045"/>
     <use style="stroke:#000000;" x="182.939501" xlink:href="#m80f0ccfe19" y="111.631046"/>
    </g>
   </g>
  </g>
 </g>
 <defs>
  <clipPath id="p6b4313c09d">
   <rect height="266.112" width="357.12" x="57.6" y="41.472"/>
  </clipPath>
 </defs>
</svg>
