<?xml version="1.0" encoding="utf-8" standalone="no"?>
<!DOCTYPE svg PUBLIC "-//W3C//DTD SVG 1.1//EN"
  "http://www.w3.org/Graphics/SVG/1.1/DTD/svg11.dtd">
<!-- Created with matplotlib (http://matplotlib.org/) -->
<svg height="345pt" version="1.1" viewBox="0 0 460 345" width="460pt" xmlns="http://www.w3.org/2000/svg" xmlns:xlink="http://www.w3.org/1999/xlink">
 <defs>
  <style type="text/css">
*{stroke-linecap:butt;stroke-linejoin:round;}
  </style>
 </defs>
 <g id="figure_1">
  <g id="patch_1">
   <path d="M 0 345.6 
L 460.8 345.6 
L 460.8 0 
L 0 0 
z
" style="fill:#ffffff;"/>
  </g>
  <g id="axes_1">
   <g id="PathCollection_1">
    <defs>
     <path d="M 0 3 
C 0.795609 3 1.55874 2.683901 2.12132 2.12132 
C 2.683901 1.55874 3 0.795609 3 0 
C 3 -0.795609 2.683901 -1.55874 2.12132 -2.12132 
C 1.55874 -2.683901 0.795609 -3 0 -3 
C -0.795609 -3 -1.55874 -2.683901 -2.12132 -2.12132 
C -2.683901 -1.55874 -3 -0.795609 -3 0 
C -3 0.795609 -2.683901 1.55874 -2.12132 2.12132 
C -1.55874 2.683901 -0.795609 3 0 3 
z
" id="m29e6a68498" style="stroke:#000000;"/>
    </defs>
    <g clip-path="url(#pf2846edf83)">
     <use style="stroke:#000000;" x="298.546698" xlink:href="#m29e6a68498" y="208.120837"/>
     <use style="stroke:#000000;" x="197.768186" xlink:href="#m29e6a68498" y="179.326977"/>
     <use style="stroke:#000000;" x="221.76307" xlink:href="#m29e6a68498" y="198.522884"/>
     <use style="stroke:#000000;" x="164.175348" xlink:href="#m29e6a68498" y="184.125954"/>
     <use style="stroke:#000000;" x="298.546698" xlink:href="#m29e6a68498" y="145.734139"/>
     <use style="stroke:#000000;" x="192.969209" xlink:href="#m29e6a68498" y="217.718791"/>
     <use style="stroke:#000000;" x="308.144652" xlink:href="#m29e6a68498" y="116.940279"/>
     <use style="stroke:#000000;" x="173.773302" xlink:href="#m29e6a68498" y="107.342325"/>
     <use style="stroke:#000000;" x="303.345675" xlink:href="#m29e6a68498" y="112.141302"/>
     <use style="stroke:#000000;" x="226.562046" xlink:href="#m29e6a68498" y="188.92493"/>
    </g>
   </g>
   <g id="PathCollection_2">
    <defs>
     <path d="M 0 3 
C 0.795609 3 1.55874 2.683901 2.12132 2.12132 
C 2.683901 1.55874 3 0.795609 3 0 
C 3 -0.795609 2.683901 -1.55874 2.12132 -2.12132 
C 1.55874 -2.683901 0.795609 -3 0 -3 
C -0.795609 -3 -1.55874 -2.683901 -2.12132 -2.12132 
C -2.683901 -1.55874 -3 -0.795609 -3 0 
C -3 0.795609 -2.683901 1.55874 -2.12132 2.12132 
C -1.55874 2.683901 -0.795609 3 0 3 
z
" id="m5138fe6706" style="stroke:#ffffff;"/>
    </defs>
    <g clip-path="url(#pf2846edf83)">
     <use style="fill:#ffffff;stroke:#ffffff;" x="116.185581" xlink:href="#m5138fe6706" y="294.502419"/>
     <use style="fill:#ffffff;stroke:#ffffff;" x="116.185581" xlink:href="#m5138fe6706" y="54.553581"/>
     <use style="fill:#ffffff;stroke:#ffffff;" x="356.134419" xlink:href="#m5138fe6706" y="294.502419"/>
     <use style="fill:#ffffff;stroke:#ffffff;" x="356.134419" xlink:href="#m5138fe6706" y="54.553581"/>
    </g>
   </g>
  </g>
 </g>
 <defs>
  <clipPath id="pf2846edf83">
   <rect height="266.112" width="357.12" x="57.6" y="41.472"/>
  </clipPath>
 </defs>
</svg>
