<?xml version="1.0" encoding="utf-8" standalone="no"?>
<!DOCTYPE svg PUBLIC "-//W3C//DTD SVG 1.1//EN"
  "http://www.w3.org/Graphics/SVG/1.1/DTD/svg11.dtd">
<!-- Created with matplotlib (http://matplotlib.org/) -->
<svg height="345pt" version="1.1" viewBox="0 0 460 345" width="460pt" xmlns="http://www.w3.org/2000/svg" xmlns:xlink="http://www.w3.org/1999/xlink">
 <defs>
  <style type="text/css">
*{stroke-linecap:butt;stroke-linejoin:round;}
  </style>
 </defs>
 <g id="figure_1">
  <g id="patch_1">
   <path d="M 0 345.6 
L 460.8 345.6 
L 460.8 0 
L 0 0 
z
" style="fill:#ffffff;"/>
  </g>
  <g id="axes_1">
   <g id="PathCollection_1">
    <defs>
     <path d="M 0 3 
C 0.795609 3 1.55874 2.683901 2.12132 2.12132 
C 2.683901 1.55874 3 0.795609 3 0 
C 3 -0.795609 2.683901 -1.55874 2.12132 -2.12132 
C 1.55874 -2.683901 0.795609 -3 0 -3 
C -0.795609 -3 -1.55874 -2.683901 -2.12132 -2.12132 
C -2.683901 -1.55874 -3 -0.795609 -3 0 
C -3 0.795609 -2.683901 1.55874 -2.12132 2.12132 
C -1.55874 2.683901 -0.795609 3 0 3 
z
" id="mc119d583a3" style="stroke:#ffffff;"/>
    </defs>
    <g clip-path="url(#p45c31fdf80)">
     <use style="fill:#ffffff;stroke:#ffffff;" x="115.20432" xlink:href="#mc119d583a3" y="295.48368"/>
     <use style="fill:#ffffff;stroke:#ffffff;" x="115.20432" xlink:href="#mc119d583a3" y="53.57232"/>
     <use style="fill:#ffffff;stroke:#ffffff;" x="357.11568" xlink:href="#mc119d583a3" y="295.48368"/>
     <use style="fill:#ffffff;stroke:#ffffff;" x="357.11568" xlink:href="#mc119d583a3" y="53.57232"/>
    </g>
   </g>
   <g id="PathCollection_2">
    <defs>
     <path d="M 0 3 
C 0.795609 3 1.55874 2.683901 2.12132 2.12132 
C 2.683901 1.55874 3 0.795609 3 0 
C 3 -0.795609 2.683901 -1.55874 2.12132 -2.12132 
C 1.55874 -2.683901 0.795609 -3 0 -3 
C -0.795609 -3 -1.55874 -2.683901 -2.12132 -2.12132 
C -2.683901 -1.55874 -3 -0.795609 -3 0 
C -3 0.795609 -2.683901 1.55874 -2.12132 2.12132 
C -1.55874 2.683901 -0.795609 3 0 3 
z
" id="m96ffd80e2a" style="stroke:#000000;"/>
    </defs>
    <g clip-path="url(#p45c31fdf80)">
     <use style="stroke:#000000;" x="289.380499" xlink:href="#m96ffd80e2a" y="218.072045"/>
     <use style="stroke:#000000;" x="240.998227" xlink:href="#m96ffd80e2a" y="116.469274"/>
     <use style="stroke:#000000;" x="226.483546" xlink:href="#m96ffd80e2a" y="256.777863"/>
     <use style="stroke:#000000;" x="303.895181" xlink:href="#m96ffd80e2a" y="232.586726"/>
     <use style="stroke:#000000;" x="236.16" xlink:href="#m96ffd80e2a" y="218.072045"/>
     <use style="stroke:#000000;" x="168.424819" xlink:href="#m96ffd80e2a" y="140.66041"/>
     <use style="stroke:#000000;" x="197.454182" xlink:href="#m96ffd80e2a" y="213.233818"/>
     <use style="stroke:#000000;" x="270.02759" xlink:href="#m96ffd80e2a" y="227.748499"/>
     <use style="stroke:#000000;" x="299.056954" xlink:href="#m96ffd80e2a" y="218.072045"/>
     <use style="stroke:#000000;" x="192.615955" xlink:href="#m96ffd80e2a" y="101.954592"/>
    </g>
   </g>
  </g>
 </g>
 <defs>
  <clipPath id="p45c31fdf80">
   <rect height="266.112" width="357.12" x="57.6" y="41.472"/>
  </clipPath>
 </defs>
</svg>
