<?xml version="1.0" encoding="utf-8" standalone="no"?>
<!DOCTYPE svg PUBLIC "-//W3C//DTD SVG 1.1//EN"
  "http://www.w3.org/Graphics/SVG/1.1/DTD/svg11.dtd">
<!-- Created with matplotlib (http://matplotlib.org/) -->
<svg height="345pt" version="1.1" viewBox="0 0 460 345" width="460pt" xmlns="http://www.w3.org/2000/svg" xmlns:xlink="http://www.w3.org/1999/xlink">
 <defs>
  <style type="text/css">
*{stroke-linecap:butt;stroke-linejoin:round;}
  </style>
 </defs>
 <g id="figure_1">
  <g id="patch_1">
   <path d="M 0 345.6 
L 460.8 345.6 
L 460.8 0 
L 0 0 
z
" style="fill:#ffffff;"/>
  </g>
  <g id="axes_1">
   <g id="PathCollection_1">
    <defs>
     <path d="M 0 3 
C 0.795609 3 1.55874 2.683901 2.12132 2.12132 
C 2.683901 1.55874 3 0.795609 3 0 
C 3 -0.795609 2.683901 -1.55874 2.12132 -2.12132 
C 1.55874 -2.683901 0.795609 -3 0 -3 
C -0.795609 -3 -1.55874 -2.683901 -2.12132 -2.12132 
C -2.683901 -1.55874 -3 -0.795609 -3 0 
C -3 0.795609 -2.683901 1.55874 -2.12132 2.12132 
C -1.55874 2.683901 -0.795609 3 0 3 
z
" id="mfd555333a0" style="stroke:#000000;"/>
    </defs>
    <g clip-path="url(#p3dbf2e1960)">
     <use style="stroke:#000000;" x="303.155818" xlink:href="#mfd555333a0" y="217.59674"/>
     <use style="stroke:#000000;" x="197.876676" xlink:href="#mfd555333a0" y="179.313416"/>
     <use style="stroke:#000000;" x="221.803753" xlink:href="#mfd555333a0" y="198.455078"/>
     <use style="stroke:#000000;" x="173.949598" xlink:href="#mfd555333a0" y="179.313416"/>
     <use style="stroke:#000000;" x="298.370402" xlink:href="#mfd555333a0" y="145.815507"/>
     <use style="stroke:#000000;" x="197.876676" xlink:href="#mfd555333a0" y="227.167571"/>
     <use style="stroke:#000000;" x="307.941233" xlink:href="#mfd555333a0" y="117.103013"/>
     <use style="stroke:#000000;" x="173.949598" xlink:href="#mfd555333a0" y="107.532182"/>
     <use style="stroke:#000000;" x="255.301662" xlink:href="#mfd555333a0" y="78.819689"/>
     <use style="stroke:#000000;" x="231.374584" xlink:href="#mfd555333a0" y="188.884247"/>
    </g>
   </g>
   <g id="PathCollection_2">
    <defs>
     <path d="M 0 3 
C 0.795609 3 1.55874 2.683901 2.12132 2.12132 
C 2.683901 1.55874 3 0.795609 3 0 
C 3 -0.795609 2.683901 -1.55874 2.12132 -2.12132 
C 1.55874 -2.683901 0.795609 -3 0 -3 
C -0.795609 -3 -1.55874 -2.683901 -2.12132 -2.12132 
C -2.683901 -1.55874 -3 -0.795609 -3 0 
C -3 0.795609 -2.683901 1.55874 -2.12132 2.12132 
C -1.55874 2.683901 -0.795609 3 0 3 
z
" id="m0facb94d68" style="stroke:#ffffff;"/>
    </defs>
    <g clip-path="url(#p3dbf2e1960)">
     <use style="fill:#ffffff;stroke:#ffffff;" x="116.524611" xlink:href="#m0facb94d68" y="294.163389"/>
     <use style="fill:#ffffff;stroke:#ffffff;" x="116.524611" xlink:href="#m0facb94d68" y="54.892611"/>
     <use style="fill:#ffffff;stroke:#ffffff;" x="355.795389" xlink:href="#m0facb94d68" y="294.163389"/>
     <use style="fill:#ffffff;stroke:#ffffff;" x="355.795389" xlink:href="#m0facb94d68" y="54.892611"/>
    </g>
   </g>
  </g>
 </g>
 <defs>
  <clipPath id="p3dbf2e1960">
   <rect height="266.112" width="357.12" x="57.6" y="41.472"/>
  </clipPath>
 </defs>
</svg>
