<?xml version="1.0" encoding="utf-8" standalone="no"?>
<!DOCTYPE svg PUBLIC "-//W3C//DTD SVG 1.1//EN"
  "http://www.w3.org/Graphics/SVG/1.1/DTD/svg11.dtd">
<!-- Created with matplotlib (http://matplotlib.org/) -->
<svg height="345pt" version="1.1" viewBox="0 0 460 345" width="460pt" xmlns="http://www.w3.org/2000/svg" xmlns:xlink="http://www.w3.org/1999/xlink">
 <defs>
  <style type="text/css">
*{stroke-linecap:butt;stroke-linejoin:round;}
  </style>
 </defs>
 <g id="figure_1">
  <g id="patch_1">
   <path d="M 0 345.6 
L 460.8 345.6 
L 460.8 0 
L 0 0 
z
" style="fill:#ffffff;"/>
  </g>
  <g id="axes_1">
   <g id="PathCollection_1">
    <defs>
     <path d="M 0 3 
C 0.795609 3 1.55874 2.683901 2.12132 2.12132 
C 2.683901 1.55874 3 0.795609 3 0 
C 3 -0.795609 2.683901 -1.55874 2.12132 -2.12132 
C 1.55874 -2.683901 0.795609 -3 0 -3 
C -0.795609 -3 -1.55874 -2.683901 -2.12132 -2.12132 
C -2.683901 -1.55874 -3 -0.795609 -3 0 
C -3 0.795609 -2.683901 1.55874 -2.12132 2.12132 
C -1.55874 2.683901 -0.795609 3 0 3 
z
" id="mfc97ec45b2" style="stroke:#ffffff;"/>
    </defs>
    <g clip-path="url(#p8116a738a0)">
     <use style="fill:#ffffff;stroke:#ffffff;" x="115.20432" xlink:href="#mfc97ec45b2" y="295.48368"/>
     <use style="fill:#ffffff;stroke:#ffffff;" x="115.20432" xlink:href="#mfc97ec45b2" y="53.57232"/>
     <use style="fill:#ffffff;stroke:#ffffff;" x="357.11568" xlink:href="#mfc97ec45b2" y="295.48368"/>
     <use style="fill:#ffffff;stroke:#ffffff;" x="357.11568" xlink:href="#mfc97ec45b2" y="53.57232"/>
    </g>
   </g>
   <g id="PathCollection_2">
    <defs>
     <path d="M 0 3 
C 0.795609 3 1.55874 2.683901 2.12132 2.12132 
C 2.683901 1.55874 3 0.795609 3 0 
C 3 -0.795609 2.683901 -1.55874 2.12132 -2.12132 
C 1.55874 -2.683901 0.795609 -3 0 -3 
C -0.795609 -3 -1.55874 -2.683901 -2.12132 -2.12132 
C -2.683901 -1.55874 -3 -0.795609 -3 0 
C -3 0.795609 -2.683901 1.55874 -2.12132 2.12132 
C -1.55874 2.683901 -0.795609 3 0 3 
z
" id="ma41b937463" style="stroke:#000000;"/>
    </defs>
    <g clip-path="url(#p8116a738a0)">
     <use style="stroke:#000000;" x="279.704045" xlink:href="#ma41b937463" y="213.233818"/>
     <use style="stroke:#000000;" x="255.512909" xlink:href="#ma41b937463" y="130.983955"/>
     <use style="stroke:#000000;" x="226.483546" xlink:href="#ma41b937463" y="242.263181"/>
     <use style="stroke:#000000;" x="308.733408" xlink:href="#ma41b937463" y="242.263181"/>
     <use style="stroke:#000000;" x="231.321773" xlink:href="#ma41b937463" y="213.233818"/>
     <use style="stroke:#000000;" x="187.777728" xlink:href="#ma41b937463" y="130.983955"/>
     <use style="stroke:#000000;" x="187.777728" xlink:href="#ma41b937463" y="218.072045"/>
     <use style="stroke:#000000;" x="284.542272" xlink:href="#ma41b937463" y="189.042682"/>
     <use style="stroke:#000000;" x="299.056954" xlink:href="#ma41b937463" y="218.072045"/>
     <use style="stroke:#000000;" x="192.615955" xlink:href="#ma41b937463" y="111.631046"/>
    </g>
   </g>
  </g>
 </g>
 <defs>
  <clipPath id="p8116a738a0">
   <rect height="266.112" width="357.12" x="57.6" y="41.472"/>
  </clipPath>
 </defs>
</svg>
