<?xml version="1.0" encoding="utf-8" standalone="no"?>
<!DOCTYPE svg PUBLIC "-//W3C//DTD SVG 1.1//EN"
  "http://www.w3.org/Graphics/SVG/1.1/DTD/svg11.dtd">
<!-- Created with matplotlib (http://matplotlib.org/) -->
<svg height="345pt" version="1.1" viewBox="0 0 460 345" width="460pt" xmlns="http://www.w3.org/2000/svg" xmlns:xlink="http://www.w3.org/1999/xlink">
 <defs>
  <style type="text/css">
*{stroke-linecap:butt;stroke-linejoin:round;}
  </style>
 </defs>
 <g id="figure_1">
  <g id="patch_1">
   <path d="M 0 345.6 
L 460.8 345.6 
L 460.8 0 
L 0 0 
z
" style="fill:#ffffff;"/>
  </g>
  <g id="axes_1">
   <g id="PathCollection_1">
    <defs>
     <path d="M 0 3 
C 0.795609 3 1.55874 2.683901 2.12132 2.12132 
C 2.683901 1.55874 3 0.795609 3 0 
C 3 -0.795609 2.683901 -1.55874 2.12132 -2.12132 
C 1.55874 -2.683901 0.795609 -3 0 -3 
C -0.795609 -3 -1.55874 -2.683901 -2.12132 -2.12132 
C -2.683901 -1.55874 -3 -0.795609 -3 0 
C -3 0.795609 -2.683901 1.55874 -2.12132 2.12132 
C -1.55874 2.683901 -0.795609 3 0 3 
z
" id="mdf81becf68" style="stroke:#000000;"/>
    </defs>
    <g clip-path="url(#p7fef127d50)">
     <use style="stroke:#000000;" x="303.321884" xlink:href="#mdf81becf68" y="217.703497"/>
     <use style="stroke:#000000;" x="197.781781" xlink:href="#mdf81becf68" y="179.325277"/>
     <use style="stroke:#000000;" x="221.768168" xlink:href="#mdf81becf68" y="193.71711"/>
     <use style="stroke:#000000;" x="173.795394" xlink:href="#mdf81becf68" y="179.325277"/>
     <use style="stroke:#000000;" x="298.524606" xlink:href="#mdf81becf68" y="145.744335"/>
     <use style="stroke:#000000;" x="202.579058" xlink:href="#mdf81becf68" y="227.298052"/>
     <use style="stroke:#000000;" x="308.119161" xlink:href="#mdf81becf68" y="116.960671"/>
     <use style="stroke:#000000;" x="154.606284" xlink:href="#mdf81becf68" y="126.555226"/>
     <use style="stroke:#000000;" x="303.321884" xlink:href="#mdf81becf68" y="112.163394"/>
     <use style="stroke:#000000;" x="231.362723" xlink:href="#mdf81becf68" y="188.919832"/>
    </g>
   </g>
   <g id="PathCollection_2">
    <defs>
     <path d="M 0 3 
C 0.795609 3 1.55874 2.683901 2.12132 2.12132 
C 2.683901 1.55874 3 0.795609 3 0 
C 3 -0.795609 2.683901 -1.55874 2.12132 -2.12132 
C 1.55874 -2.683901 0.795609 -3 0 -3 
C -0.795609 -3 -1.55874 -2.683901 -2.12132 -2.12132 
C -2.683901 -1.55874 -3 -0.795609 -3 0 
C -3 0.795609 -2.683901 1.55874 -2.12132 2.12132 
C -1.55874 2.683901 -0.795609 3 0 3 
z
" id="m593bdb4bd0" style="stroke:#ffffff;"/>
    </defs>
    <g clip-path="url(#p7fef127d50)">
     <use style="fill:#ffffff;stroke:#ffffff;" x="116.228065" xlink:href="#m593bdb4bd0" y="294.459935"/>
     <use style="fill:#ffffff;stroke:#ffffff;" x="116.228065" xlink:href="#m593bdb4bd0" y="54.596065"/>
     <use style="fill:#ffffff;stroke:#ffffff;" x="356.091935" xlink:href="#m593bdb4bd0" y="294.459935"/>
     <use style="fill:#ffffff;stroke:#ffffff;" x="356.091935" xlink:href="#m593bdb4bd0" y="54.596065"/>
    </g>
   </g>
  </g>
 </g>
 <defs>
  <clipPath id="p7fef127d50">
   <rect height="266.112" width="357.12" x="57.6" y="41.472"/>
  </clipPath>
 </defs>
</svg>
