<?xml version="1.0" encoding="utf-8" standalone="no"?>
<!DOCTYPE svg PUBLIC "-//W3C//DTD SVG 1.1//EN"
  "http://www.w3.org/Graphics/SVG/1.1/DTD/svg11.dtd">
<!-- Created with matplotlib (http://matplotlib.org/) -->
<svg height="345pt" version="1.1" viewBox="0 0 460 345" width="460pt" xmlns="http://www.w3.org/2000/svg" xmlns:xlink="http://www.w3.org/1999/xlink">
 <defs>
  <style type="text/css">
*{stroke-linecap:butt;stroke-linejoin:round;}
  </style>
 </defs>
 <g id="figure_1">
  <g id="patch_1">
   <path d="M 0 345.6 
L 460.8 345.6 
L 460.8 0 
L 0 0 
z
" style="fill:#ffffff;"/>
  </g>
  <g id="axes_1">
   <g id="PathCollection_1">
    <defs>
     <path d="M 0 3 
C 0.795609 3 1.55874 2.683901 2.12132 2.12132 
C 2.683901 1.55874 3 0.795609 3 0 
C 3 -0.795609 2.683901 -1.55874 2.12132 -2.12132 
C 1.55874 -2.683901 0.795609 -3 0 -3 
C -0.795609 -3 -1.55874 -2.683901 -2.12132 -2.12132 
C -2.683901 -1.55874 -3 -0.795609 -3 0 
C -3 0.795609 -2.683901 1.55874 -2.12132 2.12132 
C -1.55874 2.683901 -0.795609 3 0 3 
z
" id="m3c1b7df198" style="stroke:#000000;"/>
    </defs>
    <g clip-path="url(#p9a562f5a92)">
     <use style="stroke:#000000;" x="186.273199" xlink:href="#m3c1b7df198" y="212.97429"/>
     <use style="stroke:#000000;" x="219.913702" xlink:href="#m3c1b7df198" y="217.780076"/>
     <use style="stroke:#000000;" x="243.942634" xlink:href="#m3c1b7df198" y="222.585862"/>
     <use style="stroke:#000000;" x="277.583137" xlink:href="#m3c1b7df198" y="212.97429"/>
     <use style="stroke:#000000;" x="205.496344" xlink:href="#m3c1b7df198" y="188.945359"/>
     <use style="stroke:#000000;" x="359.281503" xlink:href="#m3c1b7df198" y="203.362717"/>
     <use style="stroke:#000000;" x="219.913702" xlink:href="#m3c1b7df198" y="160.110641"/>
     <use style="stroke:#000000;" x="248.74842" xlink:href="#m3c1b7df198" y="160.110641"/>
     <use style="stroke:#000000;" x="234.331061" xlink:href="#m3c1b7df198" y="131.275924"/>
    </g>
   </g>
   <g id="PathCollection_2">
    <defs>
     <path d="M 0 3 
C 0.795609 3 1.55874 2.683901 2.12132 2.12132 
C 2.683901 1.55874 3 0.795609 3 0 
C 3 -0.795609 2.683901 -1.55874 2.12132 -2.12132 
C 1.55874 -2.683901 0.795609 -3 0 -3 
C -0.795609 -3 -1.55874 -2.683901 -2.12132 -2.12132 
C -2.683901 -1.55874 -3 -0.795609 -3 0 
C -3 0.795609 -2.683901 1.55874 -2.12132 2.12132 
C -1.55874 2.683901 -0.795609 3 0 3 
z
" id="m7584376f4a" style="stroke:#ffffff;"/>
    </defs>
    <g clip-path="url(#p9a562f5a92)">
     <use style="fill:#ffffff;stroke:#ffffff;" x="114.186405" xlink:href="#m7584376f4a" y="294.672656"/>
     <use style="fill:#ffffff;stroke:#ffffff;" x="114.186405" xlink:href="#m7584376f4a" y="54.383344"/>
     <use style="fill:#ffffff;stroke:#ffffff;" x="354.475717" xlink:href="#m7584376f4a" y="294.672656"/>
     <use style="fill:#ffffff;stroke:#ffffff;" x="354.475717" xlink:href="#m7584376f4a" y="54.383344"/>
    </g>
   </g>
  </g>
 </g>
 <defs>
  <clipPath id="p9a562f5a92">
   <rect height="266.112" width="357.12" x="57.6" y="41.472"/>
  </clipPath>
 </defs>
</svg>
