<?xml version="1.0" encoding="utf-8" standalone="no"?>
<!DOCTYPE svg PUBLIC "-//W3C//DTD SVG 1.1//EN"
  "http://www.w3.org/Graphics/SVG/1.1/DTD/svg11.dtd">
<!-- Created with matplotlib (http://matplotlib.org/) -->
<svg height="345pt" version="1.1" viewBox="0 0 460 345" width="460pt" xmlns="http://www.w3.org/2000/svg" xmlns:xlink="http://www.w3.org/1999/xlink">
 <defs>
  <style type="text/css">
*{stroke-linecap:butt;stroke-linejoin:round;}
  </style>
 </defs>
 <g id="figure_1">
  <g id="patch_1">
   <path d="M 0 345.6 
L 460.8 345.6 
L 460.8 0 
L 0 0 
z
" style="fill:#ffffff;"/>
  </g>
  <g id="axes_1">
   <g id="PathCollection_1">
    <defs>
     <path d="M 0 3 
C 0.795609 3 1.55874 2.683901 2.12132 2.12132 
C 2.683901 1.55874 3 0.795609 3 0 
C 3 -0.795609 2.683901 -1.55874 2.12132 -2.12132 
C 1.55874 -2.683901 0.795609 -3 0 -3 
C -0.795609 -3 -1.55874 -2.683901 -2.12132 -2.12132 
C -2.683901 -1.55874 -3 -0.795609 -3 0 
C -3 0.795609 -2.683901 1.55874 -2.12132 2.12132 
C -1.55874 2.683901 -0.795609 3 0 3 
z
" id="md8317b1511" style="stroke:#000000;"/>
    </defs>
    <g clip-path="url(#pe02a7459e1)">
     <use style="stroke:#000000;" x="188.085084" xlink:href="#md8317b1511" y="222.602916"/>
     <use style="stroke:#000000;" x="212.122542" xlink:href="#md8317b1511" y="212.987933"/>
     <use style="stroke:#000000;" x="250.582475" xlink:href="#md8317b1511" y="212.987933"/>
     <use style="stroke:#000000;" x="289.042408" xlink:href="#md8317b1511" y="208.180441"/>
     <use style="stroke:#000000;" x="207.31505" xlink:href="#md8317b1511" y="188.950475"/>
     <use style="stroke:#000000;" x="265.00495" xlink:href="#md8317b1511" y="188.950475"/>
     <use style="stroke:#000000;" x="265.00495" xlink:href="#md8317b1511" y="164.913017"/>
     <use style="stroke:#000000;" x="250.582475" xlink:href="#md8317b1511" y="160.105525"/>
     <use style="stroke:#000000;" x="231.352508" xlink:href="#md8317b1511" y="136.068067"/>
    </g>
   </g>
   <g id="PathCollection_2">
    <defs>
     <path d="M 0 3 
C 0.795609 3 1.55874 2.683901 2.12132 2.12132 
C 2.683901 1.55874 3 0.795609 3 0 
C 3 -0.795609 2.683901 -1.55874 2.12132 -2.12132 
C 1.55874 -2.683901 0.795609 -3 0 -3 
C -0.795609 -3 -1.55874 -2.683901 -2.12132 -2.12132 
C -2.683901 -1.55874 -3 -0.795609 -3 0 
C -3 0.795609 -2.683901 1.55874 -2.12132 2.12132 
C -1.55874 2.683901 -0.795609 3 0 3 
z
" id="m4d68e655bd" style="stroke:#ffffff;"/>
    </defs>
    <g clip-path="url(#pe02a7459e1)">
     <use style="fill:#ffffff;stroke:#ffffff;" x="115.972709" xlink:href="#m4d68e655bd" y="294.715291"/>
     <use style="fill:#ffffff;stroke:#ffffff;" x="115.972709" xlink:href="#m4d68e655bd" y="54.340709"/>
     <use style="fill:#ffffff;stroke:#ffffff;" x="356.347291" xlink:href="#m4d68e655bd" y="294.715291"/>
     <use style="fill:#ffffff;stroke:#ffffff;" x="356.347291" xlink:href="#m4d68e655bd" y="54.340709"/>
    </g>
   </g>
  </g>
 </g>
 <defs>
  <clipPath id="pe02a7459e1">
   <rect height="266.112" width="357.12" x="57.6" y="41.472"/>
  </clipPath>
 </defs>
</svg>
