<?xml version="1.0" encoding="utf-8" standalone="no"?>
<!DOCTYPE svg PUBLIC "-//W3C//DTD SVG 1.1//EN"
  "http://www.w3.org/Graphics/SVG/1.1/DTD/svg11.dtd">
<!-- Created with matplotlib (http://matplotlib.org/) -->
<svg height="345pt" version="1.1" viewBox="0 0 460 345" width="460pt" xmlns="http://www.w3.org/2000/svg" xmlns:xlink="http://www.w3.org/1999/xlink">
 <defs>
  <style type="text/css">
*{stroke-linecap:butt;stroke-linejoin:round;}
  </style>
 </defs>
 <g id="figure_1">
  <g id="patch_1">
   <path d="M 0 345.6 
L 460.8 345.6 
L 460.8 0 
L 0 0 
z
" style="fill:#ffffff;"/>
  </g>
  <g id="axes_1">
   <g id="PathCollection_1">
    <defs>
     <path d="M 0 3 
C 0.795609 3 1.55874 2.683901 2.12132 2.12132 
C 2.683901 1.55874 3 0.795609 3 0 
C 3 -0.795609 2.683901 -1.55874 2.12132 -2.12132 
C 1.55874 -2.683901 0.795609 -3 0 -3 
C -0.795609 -3 -1.55874 -2.683901 -2.12132 -2.12132 
C -2.683901 -1.55874 -3 -0.795609 -3 0 
C -3 0.795609 -2.683901 1.55874 -2.12132 2.12132 
C -1.55874 2.683901 -0.795609 3 0 3 
z
" id="m7b31a67b32" style="stroke:#000000;"/>
    </defs>
    <g clip-path="url(#p5139e5cf0d)">
     <use style="stroke:#000000;" x="195.854486" xlink:href="#m7b31a67b32" y="212.987933"/>
     <use style="stroke:#000000;" x="210.276961" xlink:href="#m7b31a67b32" y="217.795425"/>
     <use style="stroke:#000000;" x="253.544386" xlink:href="#m7b31a67b32" y="217.795425"/>
     <use style="stroke:#000000;" x="364.116693" xlink:href="#m7b31a67b32" y="184.142983"/>
     <use style="stroke:#000000;" x="200.661978" xlink:href="#m7b31a67b32" y="188.950475"/>
     <use style="stroke:#000000;" x="258.351878" xlink:href="#m7b31a67b32" y="188.950475"/>
     <use style="stroke:#000000;" x="215.084453" xlink:href="#m7b31a67b32" y="160.105525"/>
     <use style="stroke:#000000;" x="243.929403" xlink:href="#m7b31a67b32" y="160.105525"/>
     <use style="stroke:#000000;" x="229.506928" xlink:href="#m7b31a67b32" y="131.260575"/>
    </g>
   </g>
   <g id="PathCollection_2">
    <defs>
     <path d="M 0 3 
C 0.795609 3 1.55874 2.683901 2.12132 2.12132 
C 2.683901 1.55874 3 0.795609 3 0 
C 3 -0.795609 2.683901 -1.55874 2.12132 -2.12132 
C 1.55874 -2.683901 0.795609 -3 0 -3 
C -0.795609 -3 -1.55874 -2.683901 -2.12132 -2.12132 
C -2.683901 -1.55874 -3 -0.795609 -3 0 
C -3 0.795609 -2.683901 1.55874 -2.12132 2.12132 
C -1.55874 2.683901 -0.795609 3 0 3 
z
" id="m0cabd06839" style="stroke:#ffffff;"/>
    </defs>
    <g clip-path="url(#p5139e5cf0d)">
     <use style="fill:#ffffff;stroke:#ffffff;" x="109.319637" xlink:href="#m0cabd06839" y="294.715291"/>
     <use style="fill:#ffffff;stroke:#ffffff;" x="109.319637" xlink:href="#m0cabd06839" y="54.340709"/>
     <use style="fill:#ffffff;stroke:#ffffff;" x="349.694219" xlink:href="#m0cabd06839" y="294.715291"/>
     <use style="fill:#ffffff;stroke:#ffffff;" x="349.694219" xlink:href="#m0cabd06839" y="54.340709"/>
    </g>
   </g>
  </g>
 </g>
 <defs>
  <clipPath id="p5139e5cf0d">
   <rect height="266.112" width="357.12" x="57.6" y="41.472"/>
  </clipPath>
 </defs>
</svg>
