<?xml version="1.0" encoding="utf-8" standalone="no"?>
<!DOCTYPE svg PUBLIC "-//W3C//DTD SVG 1.1//EN"
  "http://www.w3.org/Graphics/SVG/1.1/DTD/svg11.dtd">
<!-- Created with matplotlib (http://matplotlib.org/) -->
<svg height="345pt" version="1.1" viewBox="0 0 460 345" width="460pt" xmlns="http://www.w3.org/2000/svg" xmlns:xlink="http://www.w3.org/1999/xlink">
 <defs>
  <style type="text/css">
*{stroke-linecap:butt;stroke-linejoin:round;}
  </style>
 </defs>
 <g id="figure_1">
  <g id="patch_1">
   <path d="M 0 345.6 
L 460.8 345.6 
L 460.8 0 
L 0 0 
z
" style="fill:#ffffff;"/>
  </g>
  <g id="axes_1">
   <g id="PathCollection_1">
    <defs>
     <path d="M 0 3 
C 0.795609 3 1.55874 2.683901 2.12132 2.12132 
C 2.683901 1.55874 3 0.795609 3 0 
C 3 -0.795609 2.683901 -1.55874 2.12132 -2.12132 
C 1.55874 -2.683901 0.795609 -3 0 -3 
C -0.795609 -3 -1.55874 -2.683901 -2.12132 -2.12132 
C -2.683901 -1.55874 -3 -0.795609 -3 0 
C -3 0.795609 -2.683901 1.55874 -2.12132 2.12132 
C -1.55874 2.683901 -0.795609 3 0 3 
z
" id="m1493224f19" style="stroke:#000000;"/>
    </defs>
    <g clip-path="url(#pcad8f0fb63)">
     <use style="stroke:#000000;" x="192.892575" xlink:href="#m1493224f19" y="217.795425"/>
     <use style="stroke:#000000;" x="221.737525" xlink:href="#m1493224f19" y="217.795425"/>
     <use style="stroke:#000000;" x="250.582475" xlink:href="#m1493224f19" y="217.795425"/>
     <use style="stroke:#000000;" x="279.427425" xlink:href="#m1493224f19" y="217.795425"/>
     <use style="stroke:#000000;" x="207.31505" xlink:href="#m1493224f19" y="188.950475"/>
     <use style="stroke:#000000;" x="269.812441" xlink:href="#m1493224f19" y="193.757967"/>
     <use style="stroke:#000000;" x="221.737525" xlink:href="#m1493224f19" y="160.105525"/>
     <use style="stroke:#000000;" x="245.774983" xlink:href="#m1493224f19" y="150.490542"/>
     <use style="stroke:#000000;" x="236.16" xlink:href="#m1493224f19" y="131.260575"/>
    </g>
   </g>
   <g id="PathCollection_2">
    <defs>
     <path d="M 0 3 
C 0.795609 3 1.55874 2.683901 2.12132 2.12132 
C 2.683901 1.55874 3 0.795609 3 0 
C 3 -0.795609 2.683901 -1.55874 2.12132 -2.12132 
C 1.55874 -2.683901 0.795609 -3 0 -3 
C -0.795609 -3 -1.55874 -2.683901 -2.12132 -2.12132 
C -2.683901 -1.55874 -3 -0.795609 -3 0 
C -3 0.795609 -2.683901 1.55874 -2.12132 2.12132 
C -1.55874 2.683901 -0.795609 3 0 3 
z
" id="m010c688256" style="stroke:#ffffff;"/>
    </defs>
    <g clip-path="url(#pcad8f0fb63)">
     <use style="fill:#ffffff;stroke:#ffffff;" x="115.972709" xlink:href="#m010c688256" y="294.715291"/>
     <use style="fill:#ffffff;stroke:#ffffff;" x="115.972709" xlink:href="#m010c688256" y="54.340709"/>
     <use style="fill:#ffffff;stroke:#ffffff;" x="356.347291" xlink:href="#m010c688256" y="294.715291"/>
     <use style="fill:#ffffff;stroke:#ffffff;" x="356.347291" xlink:href="#m010c688256" y="54.340709"/>
    </g>
   </g>
  </g>
 </g>
 <defs>
  <clipPath id="pcad8f0fb63">
   <rect height="266.112" width="357.12" x="57.6" y="41.472"/>
  </clipPath>
 </defs>
</svg>
