<?xml version="1.0" encoding="utf-8" standalone="no"?>
<!DOCTYPE svg PUBLIC "-//W3C//DTD SVG 1.1//EN"
  "http://www.w3.org/Graphics/SVG/1.1/DTD/svg11.dtd">
<!-- Created with matplotlib (http://matplotlib.org/) -->
<svg height="345pt" version="1.1" viewBox="0 0 460 345" width="460pt" xmlns="http://www.w3.org/2000/svg" xmlns:xlink="http://www.w3.org/1999/xlink">
 <defs>
  <style type="text/css">
*{stroke-linecap:butt;stroke-linejoin:round;}
  </style>
 </defs>
 <g id="figure_1">
  <g id="patch_1">
   <path d="M 0 345.6 
L 460.8 345.6 
L 460.8 0 
L 0 0 
z
" style="fill:#ffffff;"/>
  </g>
  <g id="axes_1">
   <g id="PathCollection_1">
    <defs>
     <path d="M 0 3 
C 0.795609 3 1.55874 2.683901 2.12132 2.12132 
C 2.683901 1.55874 3 0.795609 3 0 
C 3 -0.795609 2.683901 -1.55874 2.12132 -2.12132 
C 1.55874 -2.683901 0.795609 -3 0 -3 
C -0.795609 -3 -1.55874 -2.683901 -2.12132 -2.12132 
C -2.683901 -1.55874 -3 -0.795609 -3 0 
C -3 0.795609 -2.683901 1.55874 -2.12132 2.12132 
C -1.55874 2.683901 -0.795609 3 0 3 
z
" id="maf2fb937a2" style="stroke:#000000;"/>
    </defs>
    <g clip-path="url(#p498f985f39)">
     <use style="stroke:#000000;" x="185.308564" xlink:href="#maf2fb937a2" y="210.749292"/>
     <use style="stroke:#000000;" x="222.291427" xlink:href="#maf2fb937a2" y="219.995008"/>
     <use style="stroke:#000000;" x="254.651431" xlink:href="#maf2fb937a2" y="215.37215"/>
     <use style="stroke:#000000;" x="282.388578" xlink:href="#maf2fb937a2" y="224.617865"/>
     <use style="stroke:#000000;" x="208.422853" xlink:href="#maf2fb937a2" y="192.257861"/>
     <use style="stroke:#000000;" x="263.897147" xlink:href="#maf2fb937a2" y="192.257861"/>
     <use style="stroke:#000000;" x="222.291427" xlink:href="#maf2fb937a2" y="164.520714"/>
     <use style="stroke:#000000;" x="245.405716" xlink:href="#maf2fb937a2" y="164.520714"/>
     <use style="stroke:#000000;" x="245.405716" xlink:href="#maf2fb937a2" y="53.572128"/>
    </g>
   </g>
   <g id="PathCollection_2">
    <defs>
     <path d="M 0 3 
C 0.795609 3 1.55874 2.683901 2.12132 2.12132 
C 2.683901 1.55874 3 0.795609 3 0 
C 3 -0.795609 2.683901 -1.55874 2.12132 -2.12132 
C 1.55874 -2.683901 0.795609 -3 0 -3 
C -0.795609 -3 -1.55874 -2.683901 -2.12132 -2.12132 
C -2.683901 -1.55874 -3 -0.795609 -3 0 
C -3 0.795609 -2.683901 1.55874 -2.12132 2.12132 
C -1.55874 2.683901 -0.795609 3 0 3 
z
" id="mb89adf858a" style="stroke:#ffffff;"/>
    </defs>
    <g clip-path="url(#p498f985f39)">
     <use style="fill:#ffffff;stroke:#ffffff;" x="120.588555" xlink:href="#mb89adf858a" y="293.960732"/>
     <use style="fill:#ffffff;stroke:#ffffff;" x="120.588555" xlink:href="#mb89adf858a" y="62.817843"/>
     <use style="fill:#ffffff;stroke:#ffffff;" x="351.731445" xlink:href="#mb89adf858a" y="293.960732"/>
     <use style="fill:#ffffff;stroke:#ffffff;" x="351.731445" xlink:href="#mb89adf858a" y="62.817843"/>
    </g>
   </g>
  </g>
 </g>
 <defs>
  <clipPath id="p498f985f39">
   <rect height="266.112" width="357.12" x="57.6" y="41.472"/>
  </clipPath>
 </defs>
</svg>
