<?xml version="1.0" encoding="utf-8" standalone="no"?>
<!DOCTYPE svg PUBLIC "-//W3C//DTD SVG 1.1//EN"
  "http://www.w3.org/Graphics/SVG/1.1/DTD/svg11.dtd">
<!-- Created with matplotlib (http://matplotlib.org/) -->
<svg height="345pt" version="1.1" viewBox="0 0 460 345" width="460pt" xmlns="http://www.w3.org/2000/svg" xmlns:xlink="http://www.w3.org/1999/xlink">
 <defs>
  <style type="text/css">
*{stroke-linecap:butt;stroke-linejoin:round;}
  </style>
 </defs>
 <g id="figure_1">
  <g id="patch_1">
   <path d="M 0 345.6 
L 460.8 345.6 
L 460.8 0 
L 0 0 
z
" style="fill:#ffffff;"/>
  </g>
  <g id="axes_1">
   <g id="PathCollection_1">
    <defs>
     <path d="M 0 3 
C 0.795609 3 1.55874 2.683901 2.12132 2.12132 
C 2.683901 1.55874 3 0.795609 3 0 
C 3 -0.795609 2.683901 -1.55874 2.12132 -2.12132 
C 1.55874 -2.683901 0.795609 -3 0 -3 
C -0.795609 -3 -1.55874 -2.683901 -2.12132 -2.12132 
C -2.683901 -1.55874 -3 -0.795609 -3 0 
C -3 0.795609 -2.683901 1.55874 -2.12132 2.12132 
C -1.55874 2.683901 -0.795609 3 0 3 
z
" id="m502aee74df" style="stroke:#000000;"/>
    </defs>
    <g clip-path="url(#p78542d6ba5)">
     <use style="stroke:#000000;" x="193.106468" xlink:href="#m502aee74df" y="284.553693"/>
     <use style="stroke:#000000;" x="231.376274" xlink:href="#m502aee74df" y="208.014081"/>
     <use style="stroke:#000000;" x="250.511177" xlink:href="#m502aee74df" y="217.581532"/>
     <use style="stroke:#000000;" x="274.429806" xlink:href="#m502aee74df" y="227.148984"/>
     <use style="stroke:#000000;" x="207.457645" xlink:href="#m502aee74df" y="188.879177"/>
     <use style="stroke:#000000;" x="264.862355" xlink:href="#m502aee74df" y="188.879177"/>
     <use style="stroke:#000000;" x="221.808823" xlink:href="#m502aee74df" y="160.176823"/>
     <use style="stroke:#000000;" x="255.294903" xlink:href="#m502aee74df" y="155.393097"/>
     <use style="stroke:#000000;" x="236.16" xlink:href="#m502aee74df" y="131.474468"/>
    </g>
   </g>
   <g id="PathCollection_2">
    <defs>
     <path d="M 0 3 
C 0.795609 3 1.55874 2.683901 2.12132 2.12132 
C 2.683901 1.55874 3 0.795609 3 0 
C 3 -0.795609 2.683901 -1.55874 2.12132 -2.12132 
C 1.55874 -2.683901 0.795609 -3 0 -3 
C -0.795609 -3 -1.55874 -2.683901 -2.12132 -2.12132 
C -2.683901 -1.55874 -3 -0.795609 -3 0 
C -3 0.795609 -2.683901 1.55874 -2.12132 2.12132 
C -1.55874 2.683901 -0.795609 3 0 3 
z
" id="maaaff4d73e" style="stroke:#ffffff;"/>
    </defs>
    <g clip-path="url(#p78542d6ba5)">
     <use style="fill:#ffffff;stroke:#ffffff;" x="116.566855" xlink:href="#maaaff4d73e" y="294.121145"/>
     <use style="fill:#ffffff;stroke:#ffffff;" x="116.566855" xlink:href="#maaaff4d73e" y="54.934855"/>
     <use style="fill:#ffffff;stroke:#ffffff;" x="355.753145" xlink:href="#maaaff4d73e" y="294.121145"/>
     <use style="fill:#ffffff;stroke:#ffffff;" x="355.753145" xlink:href="#maaaff4d73e" y="54.934855"/>
    </g>
   </g>
  </g>
 </g>
 <defs>
  <clipPath id="p78542d6ba5">
   <rect height="266.112" width="357.12" x="57.6" y="41.472"/>
  </clipPath>
 </defs>
</svg>
