<?xml version="1.0" encoding="utf-8" standalone="no"?>
<!DOCTYPE svg PUBLIC "-//W3C//DTD SVG 1.1//EN"
  "http://www.w3.org/Graphics/SVG/1.1/DTD/svg11.dtd">
<!-- Created with matplotlib (http://matplotlib.org/) -->
<svg height="345pt" version="1.1" viewBox="0 0 460 345" width="460pt" xmlns="http://www.w3.org/2000/svg" xmlns:xlink="http://www.w3.org/1999/xlink">
 <defs>
  <style type="text/css">
*{stroke-linecap:butt;stroke-linejoin:round;}
  </style>
 </defs>
 <g id="figure_1">
  <g id="patch_1">
   <path d="M 0 345.6 
L 460.8 345.6 
L 460.8 0 
L 0 0 
z
" style="fill:#ffffff;"/>
  </g>
  <g id="axes_1">
   <g id="PathCollection_1">
    <defs>
     <path d="M 0 3 
C 0.795609 3 1.55874 2.683901 2.12132 2.12132 
C 2.683901 1.55874 3 0.795609 3 0 
C 3 -0.795609 2.683901 -1.55874 2.12132 -2.12132 
C 1.55874 -2.683901 0.795609 -3 0 -3 
C -0.795609 -3 -1.55874 -2.683901 -2.12132 -2.12132 
C -2.683901 -1.55874 -3 -0.795609 -3 0 
C -3 0.795609 -2.683901 1.55874 -2.12132 2.12132 
C -1.55874 2.683901 -0.795609 3 0 3 
z
" id="m1a4a2e50e0" style="stroke:#000000;"/>
    </defs>
    <g clip-path="url(#pf5bed05d1c)">
     <use style="stroke:#000000;" x="197.727343" xlink:href="#m1a4a2e50e0" y="227.372903"/>
     <use style="stroke:#000000;" x="216.943672" xlink:href="#m1a4a2e50e0" y="217.764739"/>
     <use style="stroke:#000000;" x="245.768164" xlink:href="#m1a4a2e50e0" y="212.960657"/>
     <use style="stroke:#000000;" x="279.396739" xlink:href="#m1a4a2e50e0" y="217.764739"/>
     <use style="stroke:#000000;" x="207.335508" xlink:href="#m1a4a2e50e0" y="188.940246"/>
     <use style="stroke:#000000;" x="264.984492" xlink:href="#m1a4a2e50e0" y="188.940246"/>
     <use style="stroke:#000000;" x="226.551836" xlink:href="#m1a4a2e50e0" y="160.115754"/>
     <use style="stroke:#000000;" x="250.572246" xlink:href="#m1a4a2e50e0" y="160.115754"/>
     <use style="stroke:#000000;" x="236.16" xlink:href="#m1a4a2e50e0" y="131.291261"/>
    </g>
   </g>
   <g id="PathCollection_2">
    <defs>
     <path d="M 0 3 
C 0.795609 3 1.55874 2.683901 2.12132 2.12132 
C 2.683901 1.55874 3 0.795609 3 0 
C 3 -0.795609 2.683901 -1.55874 2.12132 -2.12132 
C 1.55874 -2.683901 0.795609 -3 0 -3 
C -0.795609 -3 -1.55874 -2.683901 -2.12132 -2.12132 
C -2.683901 -1.55874 -3 -0.795609 -3 0 
C -3 0.795609 -2.683901 1.55874 -2.12132 2.12132 
C -1.55874 2.683901 -0.795609 3 0 3 
z
" id="me438133ee7" style="stroke:#ffffff;"/>
    </defs>
    <g clip-path="url(#pf5bed05d1c)">
     <use style="fill:#ffffff;stroke:#ffffff;" x="116.057948" xlink:href="#me438133ee7" y="294.630052"/>
     <use style="fill:#ffffff;stroke:#ffffff;" x="116.057948" xlink:href="#me438133ee7" y="54.425948"/>
     <use style="fill:#ffffff;stroke:#ffffff;" x="356.262052" xlink:href="#me438133ee7" y="294.630052"/>
     <use style="fill:#ffffff;stroke:#ffffff;" x="356.262052" xlink:href="#me438133ee7" y="54.425948"/>
    </g>
   </g>
  </g>
 </g>
 <defs>
  <clipPath id="pf5bed05d1c">
   <rect height="266.112" width="357.12" x="57.6" y="41.472"/>
  </clipPath>
 </defs>
</svg>
