<?xml version="1.0" encoding="utf-8" standalone="no"?>
<!DOCTYPE svg PUBLIC "-//W3C//DTD SVG 1.1//EN"
  "http://www.w3.org/Graphics/SVG/1.1/DTD/svg11.dtd">
<!-- Created with matplotlib (http://matplotlib.org/) -->
<svg height="345pt" version="1.1" viewBox="0 0 460 345" width="460pt" xmlns="http://www.w3.org/2000/svg" xmlns:xlink="http://www.w3.org/1999/xlink">
 <defs>
  <style type="text/css">
*{stroke-linecap:butt;stroke-linejoin:round;}
  </style>
 </defs>
 <g id="figure_1">
  <g id="patch_1">
   <path d="M 0 345.6 
L 460.8 345.6 
L 460.8 0 
L 0 0 
z
" style="fill:#ffffff;"/>
  </g>
  <g id="axes_1">
   <g id="PathCollection_1">
    <defs>
     <path d="M 0 3 
C 0.795609 3 1.55874 2.683901 2.12132 2.12132 
C 2.683901 1.55874 3 0.795609 3 0 
C 3 -0.795609 2.683901 -1.55874 2.12132 -2.12132 
C 1.55874 -2.683901 0.795609 -3 0 -3 
C -0.795609 -3 -1.55874 -2.683901 -2.12132 -2.12132 
C -2.683901 -1.55874 -3 -0.795609 -3 0 
C -3 0.795609 -2.683901 1.55874 -2.12132 2.12132 
C -1.55874 2.683901 -0.795609 3 0 3 
z
" id="m9cb866d409" style="stroke:#000000;"/>
    </defs>
    <g clip-path="url(#p78bd01395b)">
     <use style="stroke:#000000;" x="188.136209" xlink:href="#m9cb866d409" y="203.342275"/>
     <use style="stroke:#000000;" x="188.136209" xlink:href="#m9cb866d409" y="164.923242"/>
     <use style="stroke:#000000;" x="197.740967" xlink:href="#m9cb866d409" y="136.108967"/>
     <use style="stroke:#000000;" x="212.148105" xlink:href="#m9cb866d409" y="150.516105"/>
     <use style="stroke:#000000;" x="216.950484" xlink:href="#m9cb866d409" y="236.958928"/>
     <use style="stroke:#000000;" x="250.567137" xlink:href="#m9cb866d409" y="150.516105"/>
     <use style="stroke:#000000;" x="269.776654" xlink:href="#m9cb866d409" y="140.911346"/>
     <use style="stroke:#000000;" x="284.183791" xlink:href="#m9cb866d409" y="164.923242"/>
     <use style="stroke:#000000;" x="274.579033" xlink:href="#m9cb866d409" y="212.947033"/>
    </g>
   </g>
   <g id="PathCollection_2">
    <defs>
     <path d="M 0 3 
C 0.795609 3 1.55874 2.683901 2.12132 2.12132 
C 2.683901 1.55874 3 0.795609 3 0 
C 3 -0.795609 2.683901 -1.55874 2.12132 -2.12132 
C 1.55874 -2.683901 0.795609 -3 0 -3 
C -0.795609 -3 -1.55874 -2.683901 -2.12132 -2.12132 
C -2.683901 -1.55874 -3 -0.795609 -3 0 
C -3 0.795609 -2.683901 1.55874 -2.12132 2.12132 
C -1.55874 2.683901 -0.795609 3 0 3 
z
" id="m159c891881" style="stroke:#ffffff;"/>
    </defs>
    <g clip-path="url(#p78bd01395b)">
     <use style="fill:#ffffff;stroke:#ffffff;" x="116.100523" xlink:href="#m159c891881" y="294.587477"/>
     <use style="fill:#ffffff;stroke:#ffffff;" x="116.100523" xlink:href="#m159c891881" y="54.468523"/>
     <use style="fill:#ffffff;stroke:#ffffff;" x="356.219477" xlink:href="#m159c891881" y="294.587477"/>
     <use style="fill:#ffffff;stroke:#ffffff;" x="356.219477" xlink:href="#m159c891881" y="54.468523"/>
    </g>
   </g>
  </g>
 </g>
 <defs>
  <clipPath id="p78bd01395b">
   <rect height="266.112" width="357.12" x="57.6" y="41.472"/>
  </clipPath>
 </defs>
</svg>
