<?xml version="1.0" encoding="utf-8" standalone="no"?>
<!DOCTYPE svg PUBLIC "-//W3C//DTD SVG 1.1//EN"
  "http://www.w3.org/Graphics/SVG/1.1/DTD/svg11.dtd">
<!-- Created with matplotlib (http://matplotlib.org/) -->
<svg height="345pt" version="1.1" viewBox="0 0 460 345" width="460pt" xmlns="http://www.w3.org/2000/svg" xmlns:xlink="http://www.w3.org/1999/xlink">
 <defs>
  <style type="text/css">
*{stroke-linecap:butt;stroke-linejoin:round;}
  </style>
 </defs>
 <g id="figure_1">
  <g id="patch_1">
   <path d="M 0 345.6 
L 460.8 345.6 
L 460.8 0 
L 0 0 
z
" style="fill:#ffffff;"/>
  </g>
  <g id="axes_1">
   <g id="PathCollection_1">
    <defs>
     <path d="M 0 3 
C 0.795609 3 1.55874 2.683901 2.12132 2.12132 
C 2.683901 1.55874 3 0.795609 3 0 
C 3 -0.795609 2.683901 -1.55874 2.12132 -2.12132 
C 1.55874 -2.683901 0.795609 -3 0 -3 
C -0.795609 -3 -1.55874 -2.683901 -2.12132 -2.12132 
C -2.683901 -1.55874 -3 -0.795609 -3 0 
C -3 0.795609 -2.683901 1.55874 -2.12132 2.12132 
C -1.55874 2.683901 -0.795609 3 0 3 
z
" id="mc3dfafe13d" style="stroke:#000000;"/>
    </defs>
    <g clip-path="url(#pecf1f49a95)">
     <use style="stroke:#000000;" x="202.519496" xlink:href="#mc3dfafe13d" y="208.168504"/>
     <use style="stroke:#000000;" x="192.907924" xlink:href="#mc3dfafe13d" y="227.391649"/>
     <use style="stroke:#000000;" x="197.71371" xlink:href="#mc3dfafe13d" y="136.08171"/>
     <use style="stroke:#000000;" x="226.548428" xlink:href="#mc3dfafe13d" y="155.304855"/>
     <use style="stroke:#000000;" x="236.16" xlink:href="#mc3dfafe13d" y="174.528"/>
     <use style="stroke:#000000;" x="255.383145" xlink:href="#mc3dfafe13d" y="155.304855"/>
     <use style="stroke:#000000;" x="279.412076" xlink:href="#mc3dfafe13d" y="145.693283"/>
     <use style="stroke:#000000;" x="274.60629" xlink:href="#mc3dfafe13d" y="179.333786"/>
     <use style="stroke:#000000;" x="284.217862" xlink:href="#mc3dfafe13d" y="212.97429"/>
    </g>
   </g>
   <g id="PathCollection_2">
    <defs>
     <path d="M 0 3 
C 0.795609 3 1.55874 2.683901 2.12132 2.12132 
C 2.683901 1.55874 3 0.795609 3 0 
C 3 -0.795609 2.683901 -1.55874 2.12132 -2.12132 
C 1.55874 -2.683901 0.795609 -3 0 -3 
C -0.795609 -3 -1.55874 -2.683901 -2.12132 -2.12132 
C -2.683901 -1.55874 -3 -0.795609 -3 0 
C -3 0.795609 -2.683901 1.55874 -2.12132 2.12132 
C -1.55874 2.683901 -0.795609 3 0 3 
z
" id="mb32fede573" style="stroke:#ffffff;"/>
    </defs>
    <g clip-path="url(#pecf1f49a95)">
     <use style="fill:#ffffff;stroke:#ffffff;" x="116.015344" xlink:href="#mb32fede573" y="294.672656"/>
     <use style="fill:#ffffff;stroke:#ffffff;" x="116.015344" xlink:href="#mb32fede573" y="54.383344"/>
     <use style="fill:#ffffff;stroke:#ffffff;" x="356.304656" xlink:href="#mb32fede573" y="294.672656"/>
     <use style="fill:#ffffff;stroke:#ffffff;" x="356.304656" xlink:href="#mb32fede573" y="54.383344"/>
    </g>
   </g>
  </g>
 </g>
 <defs>
  <clipPath id="pecf1f49a95">
   <rect height="266.112" width="357.12" x="57.6" y="41.472"/>
  </clipPath>
 </defs>
</svg>
