<?xml version="1.0" encoding="utf-8" standalone="no"?>
<!DOCTYPE svg PUBLIC "-//W3C//DTD SVG 1.1//EN"
  "http://www.w3.org/Graphics/SVG/1.1/DTD/svg11.dtd">
<!-- Created with matplotlib (http://matplotlib.org/) -->
<svg height="345pt" version="1.1" viewBox="0 0 460 345" width="460pt" xmlns="http://www.w3.org/2000/svg" xmlns:xlink="http://www.w3.org/1999/xlink">
 <defs>
  <style type="text/css">
*{stroke-linecap:butt;stroke-linejoin:round;}
  </style>
 </defs>
 <g id="figure_1">
  <g id="patch_1">
   <path d="M 0 345.6 
L 460.8 345.6 
L 460.8 0 
L 0 0 
z
" style="fill:#ffffff;"/>
  </g>
  <g id="axes_1">
   <g id="PathCollection_1">
    <defs>
     <path d="M 0 3 
C 0.795609 3 1.55874 2.683901 2.12132 2.12132 
C 2.683901 1.55874 3 0.795609 3 0 
C 3 -0.795609 2.683901 -1.55874 2.12132 -2.12132 
C 1.55874 -2.683901 0.795609 -3 0 -3 
C -0.795609 -3 -1.55874 -2.683901 -2.12132 -2.12132 
C -2.683901 -1.55874 -3 -0.795609 -3 0 
C -3 0.795609 -2.683901 1.55874 -2.12132 2.12132 
C -1.55874 2.683901 -0.795609 3 0 3 
z
" id="m9393b73ea3" style="stroke:#000000;"/>
    </defs>
    <g clip-path="url(#p33979a03a7)">
     <use style="stroke:#000000;" x="188.119179" xlink:href="#m9393b73ea3" y="208.156574"/>
     <use style="stroke:#000000;" x="164.098769" xlink:href="#m9393b73ea3" y="116.879015"/>
     <use style="stroke:#000000;" x="192.923261" xlink:href="#m9393b73ea3" y="131.291261"/>
     <use style="stroke:#000000;" x="216.943672" xlink:href="#m9393b73ea3" y="155.311672"/>
     <use style="stroke:#000000;" x="236.16" xlink:href="#m9393b73ea3" y="174.528"/>
     <use style="stroke:#000000;" x="255.376328" xlink:href="#m9393b73ea3" y="155.311672"/>
     <use style="stroke:#000000;" x="274.592657" xlink:href="#m9393b73ea3" y="136.095343"/>
     <use style="stroke:#000000;" x="274.592657" xlink:href="#m9393b73ea3" y="174.528"/>
     <use style="stroke:#000000;" x="274.592657" xlink:href="#m9393b73ea3" y="212.960657"/>
    </g>
   </g>
   <g id="PathCollection_2">
    <defs>
     <path d="M 0 3 
C 0.795609 3 1.55874 2.683901 2.12132 2.12132 
C 2.683901 1.55874 3 0.795609 3 0 
C 3 -0.795609 2.683901 -1.55874 2.12132 -2.12132 
C 1.55874 -2.683901 0.795609 -3 0 -3 
C -0.795609 -3 -1.55874 -2.683901 -2.12132 -2.12132 
C -2.683901 -1.55874 -3 -0.795609 -3 0 
C -3 0.795609 -2.683901 1.55874 -2.12132 2.12132 
C -1.55874 2.683901 -0.795609 3 0 3 
z
" id="m051732a4fc" style="stroke:#ffffff;"/>
    </defs>
    <g clip-path="url(#p33979a03a7)">
     <use style="fill:#ffffff;stroke:#ffffff;" x="116.057948" xlink:href="#m051732a4fc" y="294.630052"/>
     <use style="fill:#ffffff;stroke:#ffffff;" x="116.057948" xlink:href="#m051732a4fc" y="54.425948"/>
     <use style="fill:#ffffff;stroke:#ffffff;" x="356.262052" xlink:href="#m051732a4fc" y="294.630052"/>
     <use style="fill:#ffffff;stroke:#ffffff;" x="356.262052" xlink:href="#m051732a4fc" y="54.425948"/>
    </g>
   </g>
  </g>
 </g>
 <defs>
  <clipPath id="p33979a03a7">
   <rect height="266.112" width="357.12" x="57.6" y="41.472"/>
  </clipPath>
 </defs>
</svg>
