<?xml version="1.0" encoding="utf-8" standalone="no"?>
<!DOCTYPE svg PUBLIC "-//W3C//DTD SVG 1.1//EN"
  "http://www.w3.org/Graphics/SVG/1.1/DTD/svg11.dtd">
<!-- Created with matplotlib (http://matplotlib.org/) -->
<svg height="345pt" version="1.1" viewBox="0 0 460 345" width="460pt" xmlns="http://www.w3.org/2000/svg" xmlns:xlink="http://www.w3.org/1999/xlink">
 <defs>
  <style type="text/css">
*{stroke-linecap:butt;stroke-linejoin:round;}
  </style>
 </defs>
 <g id="figure_1">
  <g id="patch_1">
   <path d="M 0 345.6 
L 460.8 345.6 
L 460.8 0 
L 0 0 
z
" style="fill:#ffffff;"/>
  </g>
  <g id="axes_1">
   <g id="PathCollection_1">
    <defs>
     <path d="M 0 3 
C 0.795609 3 1.55874 2.683901 2.12132 2.12132 
C 2.683901 1.55874 3 0.795609 3 0 
C 3 -0.795609 2.683901 -1.55874 2.12132 -2.12132 
C 1.55874 -2.683901 0.795609 -3 0 -3 
C -0.795609 -3 -1.55874 -2.683901 -2.12132 -2.12132 
C -2.683901 -1.55874 -3 -0.795609 -3 0 
C -3 0.795609 -2.683901 1.55874 -2.12132 2.12132 
C -1.55874 2.683901 -0.795609 3 0 3 
z
" id="m44d269bd8c" style="stroke:#000000;"/>
    </defs>
    <g clip-path="url(#pf2c7ab0892)">
     <use style="stroke:#000000;" x="192.861846" xlink:href="#m44d269bd8c" y="213.015248"/>
     <use style="stroke:#000000;" x="197.672752" xlink:href="#m44d269bd8c" y="174.528"/>
     <use style="stroke:#000000;" x="197.672752" xlink:href="#m44d269bd8c" y="136.040752"/>
     <use style="stroke:#000000;" x="216.916376" xlink:href="#m44d269bd8c" y="155.284376"/>
     <use style="stroke:#000000;" x="240.970906" xlink:href="#m44d269bd8c" y="169.717094"/>
     <use style="stroke:#000000;" x="255.403624" xlink:href="#m44d269bd8c" y="150.47347"/>
     <use style="stroke:#000000;" x="226.538188" xlink:href="#m44d269bd8c" y="145.662564"/>
     <use style="stroke:#000000;" x="274.647248" xlink:href="#m44d269bd8c" y="174.528"/>
     <use style="stroke:#000000;" x="274.647248" xlink:href="#m44d269bd8c" y="213.015248"/>
    </g>
   </g>
   <g id="PathCollection_2">
    <defs>
     <path d="M 0 3 
C 0.795609 3 1.55874 2.683901 2.12132 2.12132 
C 2.683901 1.55874 3 0.795609 3 0 
C 3 -0.795609 2.683901 -1.55874 2.12132 -2.12132 
C 1.55874 -2.683901 0.795609 -3 0 -3 
C -0.795609 -3 -1.55874 -2.683901 -2.12132 -2.12132 
C -2.683901 -1.55874 -3 -0.795609 -3 0 
C -3 0.795609 -2.683901 1.55874 -2.12132 2.12132 
C -1.55874 2.683901 -0.795609 3 0 3 
z
" id="mefbacbc254" style="stroke:#ffffff;"/>
    </defs>
    <g clip-path="url(#pf2c7ab0892)">
     <use style="fill:#ffffff;stroke:#ffffff;" x="115.887349" xlink:href="#mefbacbc254" y="294.800651"/>
     <use style="fill:#ffffff;stroke:#ffffff;" x="115.887349" xlink:href="#mefbacbc254" y="54.255349"/>
     <use style="fill:#ffffff;stroke:#ffffff;" x="356.432651" xlink:href="#mefbacbc254" y="294.800651"/>
     <use style="fill:#ffffff;stroke:#ffffff;" x="356.432651" xlink:href="#mefbacbc254" y="54.255349"/>
    </g>
   </g>
  </g>
 </g>
 <defs>
  <clipPath id="pf2c7ab0892">
   <rect height="266.112" width="357.12" x="57.6" y="41.472"/>
  </clipPath>
 </defs>
</svg>
