<?xml version="1.0" encoding="utf-8" standalone="no"?>
<!DOCTYPE svg PUBLIC "-//W3C//DTD SVG 1.1//EN"
  "http://www.w3.org/Graphics/SVG/1.1/DTD/svg11.dtd">
<!-- Created with matplotlib (http://matplotlib.org/) -->
<svg height="345pt" version="1.1" viewBox="0 0 460 345" width="460pt" xmlns="http://www.w3.org/2000/svg" xmlns:xlink="http://www.w3.org/1999/xlink">
 <defs>
  <style type="text/css">
*{stroke-linecap:butt;stroke-linejoin:round;}
  </style>
 </defs>
 <g id="figure_1">
  <g id="patch_1">
   <path d="M 0 345.6 
L 460.8 345.6 
L 460.8 0 
L 0 0 
z
" style="fill:#ffffff;"/>
  </g>
  <g id="axes_1">
   <g id="PathCollection_1">
    <defs>
     <path d="M 0 3 
C 0.795609 3 1.55874 2.683901 2.12132 2.12132 
C 2.683901 1.55874 3 0.795609 3 0 
C 3 -0.795609 2.683901 -1.55874 2.12132 -2.12132 
C 1.55874 -2.683901 0.795609 -3 0 -3 
C -0.795609 -3 -1.55874 -2.683901 -2.12132 -2.12132 
C -2.683901 -1.55874 -3 -0.795609 -3 0 
C -3 0.795609 -2.683901 1.55874 -2.12132 2.12132 
C -1.55874 2.683901 -0.795609 3 0 3 
z
" id="maff40b9f0a" style="stroke:#ffffff;"/>
    </defs>
    <g clip-path="url(#p39b232c5a0)">
     <use style="fill:#ffffff;stroke:#ffffff;" x="115.20432" xlink:href="#maff40b9f0a" y="295.48368"/>
     <use style="fill:#ffffff;stroke:#ffffff;" x="115.20432" xlink:href="#maff40b9f0a" y="53.57232"/>
     <use style="fill:#ffffff;stroke:#ffffff;" x="357.11568" xlink:href="#maff40b9f0a" y="295.48368"/>
     <use style="fill:#ffffff;stroke:#ffffff;" x="357.11568" xlink:href="#maff40b9f0a" y="53.57232"/>
    </g>
   </g>
   <g id="PathCollection_2">
    <defs>
     <path d="M 0 3 
C 0.795609 3 1.55874 2.683901 2.12132 2.12132 
C 2.683901 1.55874 3 0.795609 3 0 
C 3 -0.795609 2.683901 -1.55874 2.12132 -2.12132 
C 1.55874 -2.683901 0.795609 -3 0 -3 
C -0.795609 -3 -1.55874 -2.683901 -2.12132 -2.12132 
C -2.683901 -1.55874 -3 -0.795609 -3 0 
C -3 0.795609 -2.683901 1.55874 -2.12132 2.12132 
C -1.55874 2.683901 -0.795609 3 0 3 
z
" id="m33d53fefbf" style="stroke:#000000;"/>
    </defs>
    <g clip-path="url(#p39b232c5a0)">
     <use style="stroke:#000000;" x="197.454182" xlink:href="#m33d53fefbf" y="213.233818"/>
     <use style="stroke:#000000;" x="197.454182" xlink:href="#m33d53fefbf" y="174.528"/>
     <use style="stroke:#000000;" x="197.454182" xlink:href="#m33d53fefbf" y="135.822182"/>
     <use style="stroke:#000000;" x="216.807091" xlink:href="#m33d53fefbf" y="155.175091"/>
     <use style="stroke:#000000;" x="236.16" xlink:href="#m33d53fefbf" y="174.528"/>
     <use style="stroke:#000000;" x="255.512909" xlink:href="#m33d53fefbf" y="155.175091"/>
     <use style="stroke:#000000;" x="274.865818" xlink:href="#m33d53fefbf" y="135.822182"/>
     <use style="stroke:#000000;" x="274.865818" xlink:href="#m33d53fefbf" y="174.528"/>
     <use style="stroke:#000000;" x="274.865818" xlink:href="#m33d53fefbf" y="213.233818"/>
    </g>
   </g>
  </g>
 </g>
 <defs>
  <clipPath id="p39b232c5a0">
   <rect height="266.112" width="357.12" x="57.6" y="41.472"/>
  </clipPath>
 </defs>
</svg>
