<?xml version="1.0" encoding="utf-8" standalone="no"?>
<!DOCTYPE svg PUBLIC "-//W3C//DTD SVG 1.1//EN"
  "http://www.w3.org/Graphics/SVG/1.1/DTD/svg11.dtd">
<!-- Created with matplotlib (http://matplotlib.org/) -->
<svg height="576pt" version="1.1" viewBox="0 0 576 576" width="576pt" xmlns="http://www.w3.org/2000/svg" xmlns:xlink="http://www.w3.org/1999/xlink">
 <defs>
  <style type="text/css">
*{stroke-linecap:butt;stroke-linejoin:round;}
  </style>
 </defs>
 <g id="figure_1">
  <g id="patch_1">
   <path d="M 0 576 
L 576 576 
L 576 0 
L 0 0 
z
" style="fill:#ffffff;"/>
  </g>
  <g id="axes_1">
   <g id="PathCollection_1">
    <defs>
     <path d="M 0 3 
C 0.795609 3 1.55874 2.683901 2.12132 2.12132 
C 2.683901 1.55874 3 0.795609 3 0 
C 3 -0.795609 2.683901 -1.55874 2.12132 -2.12132 
C 1.55874 -2.683901 0.795609 -3 0 -3 
C -0.795609 -3 -1.55874 -2.683901 -2.12132 -2.12132 
C -2.683901 -1.55874 -3 -0.795609 -3 0 
C -3 0.795609 -2.683901 1.55874 -2.12132 2.12132 
C -1.55874 2.683901 -0.795609 3 0 3 
z
" id="ma726ec5b90" style="stroke:#ffffff;"/>
    </defs>
    <g clip-path="url(#pb39d428d9c)">
     <use style="fill:#ffffff;stroke:#ffffff;" x="92.296309" xlink:href="#ma726ec5b90" y="493.783691"/>
     <use style="fill:#ffffff;stroke:#ffffff;" x="92.296309" xlink:href="#ma726ec5b90" y="87.976309"/>
     <use style="fill:#ffffff;stroke:#ffffff;" x="498.103691" xlink:href="#ma726ec5b90" y="493.783691"/>
     <use style="fill:#ffffff;stroke:#ffffff;" x="498.103691" xlink:href="#ma726ec5b90" y="87.976309"/>
    </g>
   </g>
   <g id="PathCollection_2">
    <defs>
     <path d="M 0 3 
C 0.795609 3 1.55874 2.683901 2.12132 2.12132 
C 2.683901 1.55874 3 0.795609 3 0 
C 3 -0.795609 2.683901 -1.55874 2.12132 -2.12132 
C 1.55874 -2.683901 0.795609 -3 0 -3 
C -0.795609 -3 -1.55874 -2.683901 -2.12132 -2.12132 
C -2.683901 -1.55874 -3 -0.795609 -3 0 
C -3 0.795609 -2.683901 1.55874 -2.12132 2.12132 
C -1.55874 2.683901 -0.795609 3 0 3 
z
" id="m742969442d" style="stroke:#000000;"/>
    </defs>
    <g clip-path="url(#pb39d428d9c)">
     <use style="stroke:#000000;" x="254.619262" xlink:href="#m742969442d" y="331.460738"/>
     <use style="stroke:#000000;" x="270.851557" xlink:href="#m742969442d" y="274.647705"/>
     <use style="stroke:#000000;" x="262.735409" xlink:href="#m742969442d" y="282.763852"/>
     <use style="stroke:#000000;" x="262.735409" xlink:href="#m742969442d" y="242.183114"/>
     <use style="stroke:#000000;" x="278.967705" xlink:href="#m742969442d" y="274.647705"/>
     <use style="stroke:#000000;" x="287.083852" xlink:href="#m742969442d" y="258.415409"/>
     <use style="stroke:#000000;" x="303.316148" xlink:href="#m742969442d" y="282.763852"/>
     <use style="stroke:#000000;" x="295.2" xlink:href="#m742969442d" y="242.183114"/>
     <use style="stroke:#000000;" x="295.2" xlink:href="#m742969442d" y="225.950819"/>
    </g>
   </g>
  </g>
 </g>
 <defs>
  <clipPath id="pb39d428d9c">
   <rect height="443.52" width="446.4" x="72" y="69.12"/>
  </clipPath>
 </defs>
</svg>
