<?xml version="1.0" encoding="utf-8" standalone="no"?>
<!DOCTYPE svg PUBLIC "-//W3C//DTD SVG 1.1//EN"
  "http://www.w3.org/Graphics/SVG/1.1/DTD/svg11.dtd">
<!-- Created with matplotlib (http://matplotlib.org/) -->
<svg height="576pt" version="1.1" viewBox="0 0 576 576" width="576pt" xmlns="http://www.w3.org/2000/svg" xmlns:xlink="http://www.w3.org/1999/xlink">
 <defs>
  <style type="text/css">
*{stroke-linecap:butt;stroke-linejoin:round;}
  </style>
 </defs>
 <g id="figure_1">
  <g id="patch_1">
   <path d="M 0 576 
L 576 576 
L 576 0 
L 0 0 
z
" style="fill:#ffffff;"/>
  </g>
  <g id="axes_1">
   <g id="PathCollection_1">
    <defs>
     <path d="M 0 3 
C 0.795609 3 1.55874 2.683901 2.12132 2.12132 
C 2.683901 1.55874 3 0.795609 3 0 
C 3 -0.795609 2.683901 -1.55874 2.12132 -2.12132 
C 1.55874 -2.683901 0.795609 -3 0 -3 
C -0.795609 -3 -1.55874 -2.683901 -2.12132 -2.12132 
C -2.683901 -1.55874 -3 -0.795609 -3 0 
C -3 0.795609 -2.683901 1.55874 -2.12132 2.12132 
C -1.55874 2.683901 -0.795609 3 0 3 
z
" id="m0d798501bb" style="stroke:#ffffff;"/>
    </defs>
    <g clip-path="url(#p0955924a2f)">
     <use style="fill:#ffffff;stroke:#ffffff;" x="92.296309" xlink:href="#m0d798501bb" y="493.783691"/>
     <use style="fill:#ffffff;stroke:#ffffff;" x="92.296309" xlink:href="#m0d798501bb" y="87.976309"/>
     <use style="fill:#ffffff;stroke:#ffffff;" x="498.103691" xlink:href="#m0d798501bb" y="493.783691"/>
     <use style="fill:#ffffff;stroke:#ffffff;" x="498.103691" xlink:href="#m0d798501bb" y="87.976309"/>
    </g>
   </g>
   <g id="PathCollection_2">
    <defs>
     <path d="M 0 3 
C 0.795609 3 1.55874 2.683901 2.12132 2.12132 
C 2.683901 1.55874 3 0.795609 3 0 
C 3 -0.795609 2.683901 -1.55874 2.12132 -2.12132 
C 1.55874 -2.683901 0.795609 -3 0 -3 
C -0.795609 -3 -1.55874 -2.683901 -2.12132 -2.12132 
C -2.683901 -1.55874 -3 -0.795609 -3 0 
C -3 0.795609 -2.683901 1.55874 -2.12132 2.12132 
C -1.55874 2.683901 -0.795609 3 0 3 
z
" id="m4403bcd972" style="stroke:#000000;"/>
    </defs>
    <g clip-path="url(#p0955924a2f)">
     <use style="stroke:#000000;" x="205.922376" xlink:href="#m4403bcd972" y="331.460738"/>
     <use style="stroke:#000000;" x="238.386967" xlink:href="#m4403bcd972" y="234.066967"/>
     <use style="stroke:#000000;" x="295.2" xlink:href="#m4403bcd972" y="225.950819"/>
     <use style="stroke:#000000;" x="327.664591" xlink:href="#m4403bcd972" y="161.021638"/>
     <use style="stroke:#000000;" x="197.806228" xlink:href="#m4403bcd972" y="347.693033"/>
     <use style="stroke:#000000;" x="254.619262" xlink:href="#m4403bcd972" y="217.834671"/>
     <use style="stroke:#000000;" x="254.619262" xlink:href="#m4403bcd972" y="242.183114"/>
     <use style="stroke:#000000;" x="238.386967" xlink:href="#m4403bcd972" y="282.763852"/>
     <use style="stroke:#000000;" x="343.896886" xlink:href="#m4403bcd972" y="217.834671"/>
    </g>
   </g>
  </g>
 </g>
 <defs>
  <clipPath id="p0955924a2f">
   <rect height="443.52" width="446.4" x="72" y="69.12"/>
  </clipPath>
 </defs>
</svg>
