<?xml version="1.0" encoding="utf-8" standalone="no"?>
<!DOCTYPE svg PUBLIC "-//W3C//DTD SVG 1.1//EN"
  "http://www.w3.org/Graphics/SVG/1.1/DTD/svg11.dtd">
<!-- Created with matplotlib (http://matplotlib.org/) -->
<svg height="345pt" version="1.1" viewBox="0 0 460 345" width="460pt" xmlns="http://www.w3.org/2000/svg" xmlns:xlink="http://www.w3.org/1999/xlink">
 <defs>
  <style type="text/css">
*{stroke-linecap:butt;stroke-linejoin:round;}
  </style>
 </defs>
 <g id="figure_1">
  <g id="patch_1">
   <path d="M 0 345.6 
L 460.8 345.6 
L 460.8 0 
L 0 0 
z
" style="fill:#ffffff;"/>
  </g>
  <g id="axes_1">
   <g id="PathCollection_1">
    <defs>
     <path d="M 0 3 
C 0.795609 3 1.55874 2.683901 2.12132 2.12132 
C 2.683901 1.55874 3 0.795609 3 0 
C 3 -0.795609 2.683901 -1.55874 2.12132 -2.12132 
C 1.55874 -2.683901 0.795609 -3 0 -3 
C -0.795609 -3 -1.55874 -2.683901 -2.12132 -2.12132 
C -2.683901 -1.55874 -3 -0.795609 -3 0 
C -3 0.795609 -2.683901 1.55874 -2.12132 2.12132 
C -1.55874 2.683901 -0.795609 3 0 3 
z
" id="m338036dcef" style="stroke:#ffffff;"/>
    </defs>
    <g clip-path="url(#p3e51fc9847)">
     <use style="fill:#ffffff;stroke:#ffffff;" x="115.20432" xlink:href="#m338036dcef" y="295.48368"/>
     <use style="fill:#ffffff;stroke:#ffffff;" x="115.20432" xlink:href="#m338036dcef" y="53.57232"/>
     <use style="fill:#ffffff;stroke:#ffffff;" x="357.11568" xlink:href="#m338036dcef" y="295.48368"/>
     <use style="fill:#ffffff;stroke:#ffffff;" x="357.11568" xlink:href="#m338036dcef" y="53.57232"/>
    </g>
   </g>
   <g id="PathCollection_2">
    <defs>
     <path d="M 0 3 
C 0.795609 3 1.55874 2.683901 2.12132 2.12132 
C 2.683901 1.55874 3 0.795609 3 0 
C 3 -0.795609 2.683901 -1.55874 2.12132 -2.12132 
C 1.55874 -2.683901 0.795609 -3 0 -3 
C -0.795609 -3 -1.55874 -2.683901 -2.12132 -2.12132 
C -2.683901 -1.55874 -3 -0.795609 -3 0 
C -3 0.795609 -2.683901 1.55874 -2.12132 2.12132 
C -1.55874 2.683901 -0.795609 3 0 3 
z
" id="m27e796f7e7" style="stroke:#000000;"/>
    </defs>
    <g clip-path="url(#p3e51fc9847)">
     <use style="stroke:#000000;" x="216.807091" xlink:href="#m27e796f7e7" y="266.454317"/>
     <use style="stroke:#000000;" x="231.321773" xlink:href="#m27e796f7e7" y="222.910272"/>
     <use style="stroke:#000000;" x="255.512909" xlink:href="#m27e796f7e7" y="227.748499"/>
     <use style="stroke:#000000;" x="279.704045" xlink:href="#m27e796f7e7" y="213.233818"/>
     <use style="stroke:#000000;" x="202.29241" xlink:href="#m27e796f7e7" y="193.880909"/>
     <use style="stroke:#000000;" x="265.189363" xlink:href="#m27e796f7e7" y="179.366227"/>
     <use style="stroke:#000000;" x="216.807091" xlink:href="#m27e796f7e7" y="160.013318"/>
     <use style="stroke:#000000;" x="260.351136" xlink:href="#m27e796f7e7" y="140.66041"/>
     <use style="stroke:#000000;" x="231.321773" xlink:href="#m27e796f7e7" y="135.822182"/>
    </g>
   </g>
  </g>
 </g>
 <defs>
  <clipPath id="p3e51fc9847">
   <rect height="266.112" width="357.12" x="57.6" y="41.472"/>
  </clipPath>
 </defs>
</svg>
