<?xml version="1.0" encoding="utf-8" standalone="no"?>
<!DOCTYPE svg PUBLIC "-//W3C//DTD SVG 1.1//EN"
  "http://www.w3.org/Graphics/SVG/1.1/DTD/svg11.dtd">
<!-- Created with matplotlib (http://matplotlib.org/) -->
<svg height="345pt" version="1.1" viewBox="0 0 460 345" width="460pt" xmlns="http://www.w3.org/2000/svg" xmlns:xlink="http://www.w3.org/1999/xlink">
 <defs>
  <style type="text/css">
*{stroke-linecap:butt;stroke-linejoin:round;}
  </style>
 </defs>
 <g id="figure_1">
  <g id="patch_1">
   <path d="M 0 345.6 
L 460.8 345.6 
L 460.8 0 
L 0 0 
z
" style="fill:#ffffff;"/>
  </g>
  <g id="axes_1">
   <g id="PathCollection_1">
    <defs>
     <path d="M 0 3 
C 0.795609 3 1.55874 2.683901 2.12132 2.12132 
C 2.683901 1.55874 3 0.795609 3 0 
C 3 -0.795609 2.683901 -1.55874 2.12132 -2.12132 
C 1.55874 -2.683901 0.795609 -3 0 -3 
C -0.795609 -3 -1.55874 -2.683901 -2.12132 -2.12132 
C -2.683901 -1.55874 -3 -0.795609 -3 0 
C -3 0.795609 -2.683901 1.55874 -2.12132 2.12132 
C -1.55874 2.683901 -0.795609 3 0 3 
z
" id="md867c17234" style="stroke:#ffffff;"/>
    </defs>
    <g clip-path="url(#p6362e20a68)">
     <use style="fill:#ffffff;stroke:#ffffff;" x="115.20432" xlink:href="#md867c17234" y="295.48368"/>
     <use style="fill:#ffffff;stroke:#ffffff;" x="115.20432" xlink:href="#md867c17234" y="53.57232"/>
     <use style="fill:#ffffff;stroke:#ffffff;" x="357.11568" xlink:href="#md867c17234" y="295.48368"/>
     <use style="fill:#ffffff;stroke:#ffffff;" x="357.11568" xlink:href="#md867c17234" y="53.57232"/>
    </g>
   </g>
   <g id="PathCollection_2">
    <defs>
     <path d="M 0 3 
C 0.795609 3 1.55874 2.683901 2.12132 2.12132 
C 2.683901 1.55874 3 0.795609 3 0 
C 3 -0.795609 2.683901 -1.55874 2.12132 -2.12132 
C 1.55874 -2.683901 0.795609 -3 0 -3 
C -0.795609 -3 -1.55874 -2.683901 -2.12132 -2.12132 
C -2.683901 -1.55874 -3 -0.795609 -3 0 
C -3 0.795609 -2.683901 1.55874 -2.12132 2.12132 
C -1.55874 2.683901 -0.795609 3 0 3 
z
" id="mb6bc73dfdd" style="stroke:#000000;"/>
    </defs>
    <g clip-path="url(#p6362e20a68)">
     <use style="stroke:#000000;" x="236.16" xlink:href="#mb6bc73dfdd" y="261.61609"/>
     <use style="stroke:#000000;" x="192.615955" xlink:href="#mb6bc73dfdd" y="213.233818"/>
     <use style="stroke:#000000;" x="284.542272" xlink:href="#mb6bc73dfdd" y="237.424954"/>
     <use style="stroke:#000000;" x="231.321773" xlink:href="#mb6bc73dfdd" y="242.263181"/>
     <use style="stroke:#000000;" x="211.968864" xlink:href="#mb6bc73dfdd" y="155.175091"/>
     <use style="stroke:#000000;" x="240.998227" xlink:href="#mb6bc73dfdd" y="155.175091"/>
     <use style="stroke:#000000;" x="226.483546" xlink:href="#mb6bc73dfdd" y="145.498637"/>
     <use style="stroke:#000000;" x="226.483546" xlink:href="#mb6bc73dfdd" y="174.528"/>
     <use style="stroke:#000000;" x="265.189363" xlink:href="#mb6bc73dfdd" y="160.013318"/>
    </g>
   </g>
  </g>
 </g>
 <defs>
  <clipPath id="p6362e20a68">
   <rect height="266.112" width="357.12" x="57.6" y="41.472"/>
  </clipPath>
 </defs>
</svg>
