<?xml version="1.0" encoding="utf-8" standalone="no"?>
<!DOCTYPE svg PUBLIC "-//W3C//DTD SVG 1.1//EN"
  "http://www.w3.org/Graphics/SVG/1.1/DTD/svg11.dtd">
<!-- Created with matplotlib (http://matplotlib.org/) -->
<svg height="576pt" version="1.1" viewBox="0 0 576 576" width="576pt" xmlns="http://www.w3.org/2000/svg" xmlns:xlink="http://www.w3.org/1999/xlink">
 <defs>
  <style type="text/css">
*{stroke-linecap:butt;stroke-linejoin:round;}
  </style>
 </defs>
 <g id="figure_1">
  <g id="patch_1">
   <path d="M 0 576 
L 576 576 
L 576 0 
L 0 0 
z
" style="fill:#ffffff;"/>
  </g>
  <g id="axes_1">
   <g id="PathCollection_1">
    <defs>
     <path d="M 0 3 
C 0.795609 3 1.55874 2.683901 2.12132 2.12132 
C 2.683901 1.55874 3 0.795609 3 0 
C 3 -0.795609 2.683901 -1.55874 2.12132 -2.12132 
C 1.55874 -2.683901 0.795609 -3 0 -3 
C -0.795609 -3 -1.55874 -2.683901 -2.12132 -2.12132 
C -2.683901 -1.55874 -3 -0.795609 -3 0 
C -3 0.795609 -2.683901 1.55874 -2.12132 2.12132 
C -1.55874 2.683901 -0.795609 3 0 3 
z
" id="ma963c7f89c" style="stroke:#ffffff;"/>
    </defs>
    <g clip-path="url(#p575cd89920)">
     <use style="fill:#ffffff;stroke:#ffffff;" x="92.296309" xlink:href="#ma963c7f89c" y="493.783691"/>
     <use style="fill:#ffffff;stroke:#ffffff;" x="92.296309" xlink:href="#ma963c7f89c" y="87.976309"/>
     <use style="fill:#ffffff;stroke:#ffffff;" x="498.103691" xlink:href="#ma963c7f89c" y="493.783691"/>
     <use style="fill:#ffffff;stroke:#ffffff;" x="498.103691" xlink:href="#ma963c7f89c" y="87.976309"/>
    </g>
   </g>
   <g id="PathCollection_2">
    <defs>
     <path d="M 0 3 
C 0.795609 3 1.55874 2.683901 2.12132 2.12132 
C 2.683901 1.55874 3 0.795609 3 0 
C 3 -0.795609 2.683901 -1.55874 2.12132 -2.12132 
C 1.55874 -2.683901 0.795609 -3 0 -3 
C -0.795609 -3 -1.55874 -2.683901 -2.12132 -2.12132 
C -2.683901 -1.55874 -3 -0.795609 -3 0 
C -3 0.795609 -2.683901 1.55874 -2.12132 2.12132 
C -1.55874 2.683901 -0.795609 3 0 3 
z
" id="m5019434c48" style="stroke:#000000;"/>
    </defs>
    <g clip-path="url(#p575cd89920)">
     <use style="stroke:#000000;" x="230.270819" xlink:href="#m5019434c48" y="436.970658"/>
     <use style="stroke:#000000;" x="222.154671" xlink:href="#m5019434c48" y="282.763852"/>
     <use style="stroke:#000000;" x="238.386967" xlink:href="#m5019434c48" y="225.950819"/>
     <use style="stroke:#000000;" x="278.967705" xlink:href="#m5019434c48" y="266.531557"/>
     <use style="stroke:#000000;" x="287.083852" xlink:href="#m5019434c48" y="298.996148"/>
     <use style="stroke:#000000;" x="319.548443" xlink:href="#m5019434c48" y="266.531557"/>
     <use style="stroke:#000000;" x="360.129181" xlink:href="#m5019434c48" y="225.950819"/>
     <use style="stroke:#000000;" x="319.548443" xlink:href="#m5019434c48" y="315.228443"/>
     <use style="stroke:#000000;" x="360.129181" xlink:href="#m5019434c48" y="363.925329"/>
    </g>
   </g>
  </g>
 </g>
 <defs>
  <clipPath id="p575cd89920">
   <rect height="443.52" width="446.4" x="72" y="69.12"/>
  </clipPath>
 </defs>
</svg>
