<?xml version="1.0" encoding="utf-8" standalone="no"?>
<!DOCTYPE svg PUBLIC "-//W3C//DTD SVG 1.1//EN"
  "http://www.w3.org/Graphics/SVG/1.1/DTD/svg11.dtd">
<!-- Created with matplotlib (http://matplotlib.org/) -->
<svg height="576pt" version="1.1" viewBox="0 0 576 576" width="576pt" xmlns="http://www.w3.org/2000/svg" xmlns:xlink="http://www.w3.org/1999/xlink">
 <defs>
  <style type="text/css">
*{stroke-linecap:butt;stroke-linejoin:round;}
  </style>
 </defs>
 <g id="figure_1">
  <g id="patch_1">
   <path d="M 0 576 
L 576 576 
L 576 0 
L 0 0 
z
" style="fill:#ffffff;"/>
  </g>
  <g id="axes_1">
   <g id="PathCollection_1">
    <defs>
     <path d="M 0 3 
C 0.795609 3 1.55874 2.683901 2.12132 2.12132 
C 2.683901 1.55874 3 0.795609 3 0 
C 3 -0.795609 2.683901 -1.55874 2.12132 -2.12132 
C 1.55874 -2.683901 0.795609 -3 0 -3 
C -0.795609 -3 -1.55874 -2.683901 -2.12132 -2.12132 
C -2.683901 -1.55874 -3 -0.795609 -3 0 
C -3 0.795609 -2.683901 1.55874 -2.12132 2.12132 
C -1.55874 2.683901 -0.795609 3 0 3 
z
" id="m89775de5c7" style="stroke:#ffffff;"/>
    </defs>
    <g clip-path="url(#p9aaf46427e)">
     <use style="fill:#ffffff;stroke:#ffffff;" x="92.296309" xlink:href="#m89775de5c7" y="493.783691"/>
     <use style="fill:#ffffff;stroke:#ffffff;" x="92.296309" xlink:href="#m89775de5c7" y="87.976309"/>
     <use style="fill:#ffffff;stroke:#ffffff;" x="498.103691" xlink:href="#m89775de5c7" y="493.783691"/>
     <use style="fill:#ffffff;stroke:#ffffff;" x="498.103691" xlink:href="#m89775de5c7" y="87.976309"/>
    </g>
   </g>
   <g id="PathCollection_2">
    <defs>
     <path d="M 0 3 
C 0.795609 3 1.55874 2.683901 2.12132 2.12132 
C 2.683901 1.55874 3 0.795609 3 0 
C 3 -0.795609 2.683901 -1.55874 2.12132 -2.12132 
C 1.55874 -2.683901 0.795609 -3 0 -3 
C -0.795609 -3 -1.55874 -2.683901 -2.12132 -2.12132 
C -2.683901 -1.55874 -3 -0.795609 -3 0 
C -3 0.795609 -2.683901 1.55874 -2.12132 2.12132 
C -1.55874 2.683901 -0.795609 3 0 3 
z
" id="m64e405d88b" style="stroke:#000000;"/>
    </defs>
    <g clip-path="url(#p9aaf46427e)">
     <use style="stroke:#000000;" x="287.083852" xlink:href="#m64e405d88b" y="298.996148"/>
     <use style="stroke:#000000;" x="262.735409" xlink:href="#m64e405d88b" y="339.576886"/>
     <use style="stroke:#000000;" x="230.270819" xlink:href="#m64e405d88b" y="217.834671"/>
     <use style="stroke:#000000;" x="254.619262" xlink:href="#m64e405d88b" y="266.531557"/>
     <use style="stroke:#000000;" x="287.083852" xlink:href="#m64e405d88b" y="307.112295"/>
     <use style="stroke:#000000;" x="376.361476" xlink:href="#m64e405d88b" y="225.950819"/>
     <use style="stroke:#000000;" x="425.058362" xlink:href="#m64e405d88b" y="258.415409"/>
     <use style="stroke:#000000;" x="376.361476" xlink:href="#m64e405d88b" y="298.996148"/>
     <use style="stroke:#000000;" x="343.896886" xlink:href="#m64e405d88b" y="315.228443"/>
    </g>
   </g>
  </g>
 </g>
 <defs>
  <clipPath id="p9aaf46427e">
   <rect height="443.52" width="446.4" x="72" y="69.12"/>
  </clipPath>
 </defs>
</svg>
