<?xml version="1.0" encoding="utf-8" standalone="no"?>
<!DOCTYPE svg PUBLIC "-//W3C//DTD SVG 1.1//EN"
  "http://www.w3.org/Graphics/SVG/1.1/DTD/svg11.dtd">
<!-- Created with matplotlib (http://matplotlib.org/) -->
<svg height="576pt" version="1.1" viewBox="0 0 576 576" width="576pt" xmlns="http://www.w3.org/2000/svg" xmlns:xlink="http://www.w3.org/1999/xlink">
 <defs>
  <style type="text/css">
*{stroke-linecap:butt;stroke-linejoin:round;}
  </style>
 </defs>
 <g id="figure_1">
  <g id="patch_1">
   <path d="M 0 576 
L 576 576 
L 576 0 
L 0 0 
z
" style="fill:#ffffff;"/>
  </g>
  <g id="axes_1">
   <g id="PathCollection_1">
    <defs>
     <path d="M 0 3 
C 0.795609 3 1.55874 2.683901 2.12132 2.12132 
C 2.683901 1.55874 3 0.795609 3 0 
C 3 -0.795609 2.683901 -1.55874 2.12132 -2.12132 
C 1.55874 -2.683901 0.795609 -3 0 -3 
C -0.795609 -3 -1.55874 -2.683901 -2.12132 -2.12132 
C -2.683901 -1.55874 -3 -0.795609 -3 0 
C -3 0.795609 -2.683901 1.55874 -2.12132 2.12132 
C -1.55874 2.683901 -0.795609 3 0 3 
z
" id="m3fac225b37" style="stroke:#ffffff;"/>
    </defs>
    <g clip-path="url(#p1b873d9ad7)">
     <use style="fill:#ffffff;stroke:#ffffff;" x="92.296309" xlink:href="#m3fac225b37" y="493.783691"/>
     <use style="fill:#ffffff;stroke:#ffffff;" x="92.296309" xlink:href="#m3fac225b37" y="87.976309"/>
     <use style="fill:#ffffff;stroke:#ffffff;" x="498.103691" xlink:href="#m3fac225b37" y="493.783691"/>
     <use style="fill:#ffffff;stroke:#ffffff;" x="498.103691" xlink:href="#m3fac225b37" y="87.976309"/>
    </g>
   </g>
   <g id="PathCollection_2">
    <defs>
     <path d="M 0 3 
C 0.795609 3 1.55874 2.683901 2.12132 2.12132 
C 2.683901 1.55874 3 0.795609 3 0 
C 3 -0.795609 2.683901 -1.55874 2.12132 -2.12132 
C 1.55874 -2.683901 0.795609 -3 0 -3 
C -0.795609 -3 -1.55874 -2.683901 -2.12132 -2.12132 
C -2.683901 -1.55874 -3 -0.795609 -3 0 
C -3 0.795609 -2.683901 1.55874 -2.12132 2.12132 
C -1.55874 2.683901 -0.795609 3 0 3 
z
" id="m722e9daa7c" style="stroke:#000000;"/>
    </defs>
    <g clip-path="url(#p1b873d9ad7)">
     <use style="stroke:#000000;" x="246.503114" xlink:href="#m722e9daa7c" y="372.041476"/>
     <use style="stroke:#000000;" x="238.386967" xlink:href="#m722e9daa7c" y="298.996148"/>
     <use style="stroke:#000000;" x="287.083852" xlink:href="#m722e9daa7c" y="290.88"/>
     <use style="stroke:#000000;" x="287.083852" xlink:href="#m722e9daa7c" y="234.066967"/>
     <use style="stroke:#000000;" x="335.780738" xlink:href="#m722e9daa7c" y="258.415409"/>
     <use style="stroke:#000000;" x="343.896886" xlink:href="#m722e9daa7c" y="266.531557"/>
     <use style="stroke:#000000;" x="295.2" xlink:href="#m722e9daa7c" y="209.718524"/>
     <use style="stroke:#000000;" x="352.013033" xlink:href="#m722e9daa7c" y="315.228443"/>
     <use style="stroke:#000000;" x="368.245329" xlink:href="#m722e9daa7c" y="355.809181"/>
    </g>
   </g>
  </g>
 </g>
 <defs>
  <clipPath id="p1b873d9ad7">
   <rect height="443.52" width="446.4" x="72" y="69.12"/>
  </clipPath>
 </defs>
</svg>
