<?xml version="1.0" encoding="utf-8" standalone="no"?>
<!DOCTYPE svg PUBLIC "-//W3C//DTD SVG 1.1//EN"
  "http://www.w3.org/Graphics/SVG/1.1/DTD/svg11.dtd">
<!-- Created with matplotlib (http://matplotlib.org/) -->
<svg height="576pt" version="1.1" viewBox="0 0 576 576" width="576pt" xmlns="http://www.w3.org/2000/svg" xmlns:xlink="http://www.w3.org/1999/xlink">
 <defs>
  <style type="text/css">
*{stroke-linecap:butt;stroke-linejoin:round;}
  </style>
 </defs>
 <g id="figure_1">
  <g id="patch_1">
   <path d="M 0 576 
L 576 576 
L 576 0 
L 0 0 
z
" style="fill:#ffffff;"/>
  </g>
  <g id="axes_1">
   <g id="PathCollection_1">
    <defs>
     <path d="M 0 3 
C 0.795609 3 1.55874 2.683901 2.12132 2.12132 
C 2.683901 1.55874 3 0.795609 3 0 
C 3 -0.795609 2.683901 -1.55874 2.12132 -2.12132 
C 1.55874 -2.683901 0.795609 -3 0 -3 
C -0.795609 -3 -1.55874 -2.683901 -2.12132 -2.12132 
C -2.683901 -1.55874 -3 -0.795609 -3 0 
C -3 0.795609 -2.683901 1.55874 -2.12132 2.12132 
C -1.55874 2.683901 -0.795609 3 0 3 
z
" id="mfa6dd0e0f3" style="stroke:#ffffff;"/>
    </defs>
    <g clip-path="url(#p3ca50f9c2b)">
     <use style="fill:#ffffff;stroke:#ffffff;" x="92.296309" xlink:href="#mfa6dd0e0f3" y="493.783691"/>
     <use style="fill:#ffffff;stroke:#ffffff;" x="92.296309" xlink:href="#mfa6dd0e0f3" y="87.976309"/>
     <use style="fill:#ffffff;stroke:#ffffff;" x="498.103691" xlink:href="#mfa6dd0e0f3" y="493.783691"/>
     <use style="fill:#ffffff;stroke:#ffffff;" x="498.103691" xlink:href="#mfa6dd0e0f3" y="87.976309"/>
    </g>
   </g>
   <g id="PathCollection_2">
    <defs>
     <path d="M 0 3 
C 0.795609 3 1.55874 2.683901 2.12132 2.12132 
C 2.683901 1.55874 3 0.795609 3 0 
C 3 -0.795609 2.683901 -1.55874 2.12132 -2.12132 
C 1.55874 -2.683901 0.795609 -3 0 -3 
C -0.795609 -3 -1.55874 -2.683901 -2.12132 -2.12132 
C -2.683901 -1.55874 -3 -0.795609 -3 0 
C -3 0.795609 -2.683901 1.55874 -2.12132 2.12132 
C -1.55874 2.683901 -0.795609 3 0 3 
z
" id="m4750c3448f" style="stroke:#000000;"/>
    </defs>
    <g clip-path="url(#p3ca50f9c2b)">
     <use style="stroke:#000000;" x="197.806228" xlink:href="#m4750c3448f" y="372.041476"/>
     <use style="stroke:#000000;" x="408.826067" xlink:href="#m4750c3448f" y="347.693033"/>
     <use style="stroke:#000000;" x="408.826067" xlink:href="#m4750c3448f" y="169.137785"/>
     <use style="stroke:#000000;" x="246.503114" xlink:href="#m4750c3448f" y="404.506067"/>
     <use style="stroke:#000000;" x="343.896886" xlink:href="#m4750c3448f" y="201.602376"/>
     <use style="stroke:#000000;" x="343.896886" xlink:href="#m4750c3448f" y="282.763852"/>
     <use style="stroke:#000000;" x="311.432295" xlink:href="#m4750c3448f" y="225.950819"/>
     <use style="stroke:#000000;" x="384.477624" xlink:href="#m4750c3448f" y="225.950819"/>
     <use style="stroke:#000000;" x="392.593772" xlink:href="#m4750c3448f" y="225.950819"/>
     <use style="stroke:#000000;" x="416.942215" xlink:href="#m4750c3448f" y="298.996148"/>
    </g>
   </g>
  </g>
 </g>
 <defs>
  <clipPath id="p3ca50f9c2b">
   <rect height="443.52" width="446.4" x="72" y="69.12"/>
  </clipPath>
 </defs>
</svg>
