<?xml version="1.0" encoding="utf-8" standalone="no"?>
<!DOCTYPE svg PUBLIC "-//W3C//DTD SVG 1.1//EN"
  "http://www.w3.org/Graphics/SVG/1.1/DTD/svg11.dtd">
<!-- Created with matplotlib (http://matplotlib.org/) -->
<svg height="576pt" version="1.1" viewBox="0 0 576 576" width="576pt" xmlns="http://www.w3.org/2000/svg" xmlns:xlink="http://www.w3.org/1999/xlink">
 <defs>
  <style type="text/css">
*{stroke-linecap:butt;stroke-linejoin:round;}
  </style>
 </defs>
 <g id="figure_1">
  <g id="patch_1">
   <path d="M 0 576 
L 576 576 
L 576 0 
L 0 0 
z
" style="fill:#ffffff;"/>
  </g>
  <g id="axes_1">
   <g id="PathCollection_1">
    <defs>
     <path d="M 0 3 
C 0.795609 3 1.55874 2.683901 2.12132 2.12132 
C 2.683901 1.55874 3 0.795609 3 0 
C 3 -0.795609 2.683901 -1.55874 2.12132 -2.12132 
C 1.55874 -2.683901 0.795609 -3 0 -3 
C -0.795609 -3 -1.55874 -2.683901 -2.12132 -2.12132 
C -2.683901 -1.55874 -3 -0.795609 -3 0 
C -3 0.795609 -2.683901 1.55874 -2.12132 2.12132 
C -1.55874 2.683901 -0.795609 3 0 3 
z
" id="ma7d6df8816" style="stroke:#ffffff;"/>
    </defs>
    <g clip-path="url(#pec6a79e603)">
     <use style="fill:#ffffff;stroke:#ffffff;" x="92.296309" xlink:href="#ma7d6df8816" y="493.783691"/>
     <use style="fill:#ffffff;stroke:#ffffff;" x="92.296309" xlink:href="#ma7d6df8816" y="87.976309"/>
     <use style="fill:#ffffff;stroke:#ffffff;" x="498.103691" xlink:href="#ma7d6df8816" y="493.783691"/>
     <use style="fill:#ffffff;stroke:#ffffff;" x="498.103691" xlink:href="#ma7d6df8816" y="87.976309"/>
    </g>
   </g>
   <g id="PathCollection_2">
    <defs>
     <path d="M 0 3 
C 0.795609 3 1.55874 2.683901 2.12132 2.12132 
C 2.683901 1.55874 3 0.795609 3 0 
C 3 -0.795609 2.683901 -1.55874 2.12132 -2.12132 
C 1.55874 -2.683901 0.795609 -3 0 -3 
C -0.795609 -3 -1.55874 -2.683901 -2.12132 -2.12132 
C -2.683901 -1.55874 -3 -0.795609 -3 0 
C -3 0.795609 -2.683901 1.55874 -2.12132 2.12132 
C -1.55874 2.683901 -0.795609 3 0 3 
z
" id="mdfc2718b86" style="stroke:#000000;"/>
    </defs>
    <g clip-path="url(#pec6a79e603)">
     <use style="stroke:#000000;" x="254.619262" xlink:href="#mdfc2718b86" y="307.112295"/>
     <use style="stroke:#000000;" x="400.709919" xlink:href="#mdfc2718b86" y="355.809181"/>
     <use style="stroke:#000000;" x="384.477624" xlink:href="#mdfc2718b86" y="185.370081"/>
     <use style="stroke:#000000;" x="254.619262" xlink:href="#mdfc2718b86" y="412.622215"/>
     <use style="stroke:#000000;" x="343.896886" xlink:href="#mdfc2718b86" y="201.602376"/>
     <use style="stroke:#000000;" x="343.896886" xlink:href="#mdfc2718b86" y="282.763852"/>
     <use style="stroke:#000000;" x="343.896886" xlink:href="#mdfc2718b86" y="250.299262"/>
     <use style="stroke:#000000;" x="392.593772" xlink:href="#mdfc2718b86" y="234.066967"/>
     <use style="stroke:#000000;" x="408.826067" xlink:href="#mdfc2718b86" y="225.950819"/>
     <use style="stroke:#000000;" x="408.826067" xlink:href="#mdfc2718b86" y="307.112295"/>
    </g>
   </g>
  </g>
 </g>
 <defs>
  <clipPath id="pec6a79e603">
   <rect height="443.52" width="446.4" x="72" y="69.12"/>
  </clipPath>
 </defs>
</svg>
