<?xml version="1.0" encoding="utf-8" standalone="no"?>
<!DOCTYPE svg PUBLIC "-//W3C//DTD SVG 1.1//EN"
  "http://www.w3.org/Graphics/SVG/1.1/DTD/svg11.dtd">
<!-- Created with matplotlib (http://matplotlib.org/) -->
<svg height="345pt" version="1.1" viewBox="0 0 460 345" width="460pt" xmlns="http://www.w3.org/2000/svg" xmlns:xlink="http://www.w3.org/1999/xlink">
 <defs>
  <style type="text/css">
*{stroke-linecap:butt;stroke-linejoin:round;}
  </style>
 </defs>
 <g id="figure_1">
  <g id="patch_1">
   <path d="M 0 345.6 
L 460.8 345.6 
L 460.8 0 
L 0 0 
z
" style="fill:#ffffff;"/>
  </g>
  <g id="axes_1">
   <g id="PathCollection_1">
    <defs>
     <path d="M 0 3 
C 0.795609 3 1.55874 2.683901 2.12132 2.12132 
C 2.683901 1.55874 3 0.795609 3 0 
C 3 -0.795609 2.683901 -1.55874 2.12132 -2.12132 
C 1.55874 -2.683901 0.795609 -3 0 -3 
C -0.795609 -3 -1.55874 -2.683901 -2.12132 -2.12132 
C -2.683901 -1.55874 -3 -0.795609 -3 0 
C -3 0.795609 -2.683901 1.55874 -2.12132 2.12132 
C -1.55874 2.683901 -0.795609 3 0 3 
z
" id="mac92f8d6ae" style="stroke:#000000;"/>
    </defs>
    <g clip-path="url(#p3c06b8540d)">
     <use style="stroke:#000000;" x="231.350802" xlink:href="#mac92f8d6ae" y="213.001586"/>
     <use style="stroke:#000000;" x="212.114009" xlink:href="#mac92f8d6ae" y="198.573991"/>
     <use style="stroke:#000000;" x="260.205991" xlink:href="#mac92f8d6ae" y="198.573991"/>
     <use style="stroke:#000000;" x="192.877216" xlink:href="#mac92f8d6ae" y="179.337198"/>
     <use style="stroke:#000000;" x="284.251982" xlink:href="#mac92f8d6ae" y="174.528"/>
     <use style="stroke:#000000;" x="207.304811" xlink:href="#mac92f8d6ae" y="155.291207"/>
     <use style="stroke:#000000;" x="260.205991" xlink:href="#mac92f8d6ae" y="155.291207"/>
     <use style="stroke:#000000;" x="245.778396" xlink:href="#mac92f8d6ae" y="131.245216"/>
    </g>
   </g>
   <g id="PathCollection_2">
    <defs>
     <path d="M 0 3 
C 0.795609 3 1.55874 2.683901 2.12132 2.12132 
C 2.683901 1.55874 3 0.795609 3 0 
C 3 -0.795609 2.683901 -1.55874 2.12132 -2.12132 
C 1.55874 -2.683901 0.795609 -3 0 -3 
C -0.795609 -3 -1.55874 -2.683901 -2.12132 -2.12132 
C -2.683901 -1.55874 -3 -0.795609 -3 0 
C -3 0.795609 -2.683901 1.55874 -2.12132 2.12132 
C -1.55874 2.683901 -0.795609 3 0 3 
z
" id="m9804ef027e" style="stroke:#ffffff;"/>
    </defs>
    <g clip-path="url(#p3c06b8540d)">
     <use style="fill:#ffffff;stroke:#ffffff;" x="115.930044" xlink:href="#m9804ef027e" y="294.757956"/>
     <use style="fill:#ffffff;stroke:#ffffff;" x="115.930044" xlink:href="#m9804ef027e" y="54.298044"/>
     <use style="fill:#ffffff;stroke:#ffffff;" x="356.389956" xlink:href="#m9804ef027e" y="294.757956"/>
     <use style="fill:#ffffff;stroke:#ffffff;" x="356.389956" xlink:href="#m9804ef027e" y="54.298044"/>
    </g>
   </g>
  </g>
 </g>
 <defs>
  <clipPath id="p3c06b8540d">
   <rect height="266.112" width="357.12" x="57.6" y="41.472"/>
  </clipPath>
 </defs>
</svg>
