<?xml version="1.0" encoding="utf-8" standalone="no"?>
<!DOCTYPE svg PUBLIC "-//W3C//DTD SVG 1.1//EN"
  "http://www.w3.org/Graphics/SVG/1.1/DTD/svg11.dtd">
<!-- Created with matplotlib (http://matplotlib.org/) -->
<svg height="345pt" version="1.1" viewBox="0 0 460 345" width="460pt" xmlns="http://www.w3.org/2000/svg" xmlns:xlink="http://www.w3.org/1999/xlink">
 <defs>
  <style type="text/css">
*{stroke-linecap:butt;stroke-linejoin:round;}
  </style>
 </defs>
 <g id="figure_1">
  <g id="patch_1">
   <path d="M 0 345.6 
L 460.8 345.6 
L 460.8 0 
L 0 0 
z
" style="fill:#ffffff;"/>
  </g>
  <g id="axes_1">
   <g id="PathCollection_1">
    <defs>
     <path d="M 0 3 
C 0.795609 3 1.55874 2.683901 2.12132 2.12132 
C 2.683901 1.55874 3 0.795609 3 0 
C 3 -0.795609 2.683901 -1.55874 2.12132 -2.12132 
C 1.55874 -2.683901 0.795609 -3 0 -3 
C -0.795609 -3 -1.55874 -2.683901 -2.12132 -2.12132 
C -2.683901 -1.55874 -3 -0.795609 -3 0 
C -3 0.795609 -2.683901 1.55874 -2.12132 2.12132 
C -1.55874 2.683901 -0.795609 3 0 3 
z
" id="m54a2867c42" style="stroke:#000000;"/>
    </defs>
    <g clip-path="url(#pa7ce748759)">
     <use style="stroke:#000000;" x="236.16" xlink:href="#m54a2867c42" y="222.568821"/>
     <use style="stroke:#000000;" x="240.964082" xlink:href="#m54a2867c42" y="188.940246"/>
     <use style="stroke:#000000;" x="260.18041" xlink:href="#m54a2867c42" y="198.54841"/>
     <use style="stroke:#000000;" x="183.315097" xlink:href="#m54a2867c42" y="164.919836"/>
     <use style="stroke:#000000;" x="284.200821" xlink:href="#m54a2867c42" y="169.723918"/>
     <use style="stroke:#000000;" x="212.13959" xlink:href="#m54a2867c42" y="150.50759"/>
     <use style="stroke:#000000;" x="260.18041" xlink:href="#m54a2867c42" y="150.50759"/>
     <use style="stroke:#000000;" x="236.16" xlink:href="#m54a2867c42" y="126.487179"/>
    </g>
   </g>
   <g id="PathCollection_2">
    <defs>
     <path d="M 0 3 
C 0.795609 3 1.55874 2.683901 2.12132 2.12132 
C 2.683901 1.55874 3 0.795609 3 0 
C 3 -0.795609 2.683901 -1.55874 2.12132 -2.12132 
C 1.55874 -2.683901 0.795609 -3 0 -3 
C -0.795609 -3 -1.55874 -2.683901 -2.12132 -2.12132 
C -2.683901 -1.55874 -3 -0.795609 -3 0 
C -3 0.795609 -2.683901 1.55874 -2.12132 2.12132 
C -1.55874 2.683901 -0.795609 3 0 3 
z
" id="m675ec47770" style="stroke:#ffffff;"/>
    </defs>
    <g clip-path="url(#pa7ce748759)">
     <use style="fill:#ffffff;stroke:#ffffff;" x="116.057948" xlink:href="#m675ec47770" y="294.630052"/>
     <use style="fill:#ffffff;stroke:#ffffff;" x="116.057948" xlink:href="#m675ec47770" y="54.425948"/>
     <use style="fill:#ffffff;stroke:#ffffff;" x="356.262052" xlink:href="#m675ec47770" y="294.630052"/>
     <use style="fill:#ffffff;stroke:#ffffff;" x="356.262052" xlink:href="#m675ec47770" y="54.425948"/>
    </g>
   </g>
  </g>
 </g>
 <defs>
  <clipPath id="pa7ce748759">
   <rect height="266.112" width="357.12" x="57.6" y="41.472"/>
  </clipPath>
 </defs>
</svg>
