<?xml version="1.0" encoding="utf-8" standalone="no"?>
<!DOCTYPE svg PUBLIC "-//W3C//DTD SVG 1.1//EN"
  "http://www.w3.org/Graphics/SVG/1.1/DTD/svg11.dtd">
<!-- Created with matplotlib (http://matplotlib.org/) -->
<svg height="345pt" version="1.1" viewBox="0 0 460 345" width="460pt" xmlns="http://www.w3.org/2000/svg" xmlns:xlink="http://www.w3.org/1999/xlink">
 <defs>
  <style type="text/css">
*{stroke-linecap:butt;stroke-linejoin:round;}
  </style>
 </defs>
 <g id="figure_1">
  <g id="patch_1">
   <path d="M 0 345.6 
L 460.8 345.6 
L 460.8 0 
L 0 0 
z
" style="fill:#ffffff;"/>
  </g>
  <g id="axes_1">
   <g id="PathCollection_1">
    <defs>
     <path d="M 0 3 
C 0.795609 3 1.55874 2.683901 2.12132 2.12132 
C 2.683901 1.55874 3 0.795609 3 0 
C 3 -0.795609 2.683901 -1.55874 2.12132 -2.12132 
C 1.55874 -2.683901 0.795609 -3 0 -3 
C -0.795609 -3 -1.55874 -2.683901 -2.12132 -2.12132 
C -2.683901 -1.55874 -3 -0.795609 -3 0 
C -3 0.795609 -2.683901 1.55874 -2.12132 2.12132 
C -1.55874 2.683901 -0.795609 3 0 3 
z
" id="mea24cdc461" style="stroke:#000000;"/>
    </defs>
    <g clip-path="url(#pf6f3fbf64a)">
     <use style="stroke:#000000;" x="231.374584" xlink:href="#mea24cdc461" y="227.167571"/>
     <use style="stroke:#000000;" x="212.232922" xlink:href="#mea24cdc461" y="198.455078"/>
     <use style="stroke:#000000;" x="255.301662" xlink:href="#mea24cdc461" y="193.669662"/>
     <use style="stroke:#000000;" x="188.305844" xlink:href="#mea24cdc461" y="174.528"/>
     <use style="stroke:#000000;" x="284.014156" xlink:href="#mea24cdc461" y="174.528"/>
     <use style="stroke:#000000;" x="288.799571" xlink:href="#mea24cdc461" y="78.819689"/>
     <use style="stroke:#000000;" x="260.087078" xlink:href="#mea24cdc461" y="150.600922"/>
     <use style="stroke:#000000;" x="236.16" xlink:href="#mea24cdc461" y="126.673844"/>
    </g>
   </g>
   <g id="PathCollection_2">
    <defs>
     <path d="M 0 3 
C 0.795609 3 1.55874 2.683901 2.12132 2.12132 
C 2.683901 1.55874 3 0.795609 3 0 
C 3 -0.795609 2.683901 -1.55874 2.12132 -2.12132 
C 1.55874 -2.683901 0.795609 -3 0 -3 
C -0.795609 -3 -1.55874 -2.683901 -2.12132 -2.12132 
C -2.683901 -1.55874 -3 -0.795609 -3 0 
C -3 0.795609 -2.683901 1.55874 -2.12132 2.12132 
C -1.55874 2.683901 -0.795609 3 0 3 
z
" id="mad5239fe0f" style="stroke:#ffffff;"/>
    </defs>
    <g clip-path="url(#pf6f3fbf64a)">
     <use style="fill:#ffffff;stroke:#ffffff;" x="116.524611" xlink:href="#mad5239fe0f" y="294.163389"/>
     <use style="fill:#ffffff;stroke:#ffffff;" x="116.524611" xlink:href="#mad5239fe0f" y="54.892611"/>
     <use style="fill:#ffffff;stroke:#ffffff;" x="355.795389" xlink:href="#mad5239fe0f" y="294.163389"/>
     <use style="fill:#ffffff;stroke:#ffffff;" x="355.795389" xlink:href="#mad5239fe0f" y="54.892611"/>
    </g>
   </g>
  </g>
 </g>
 <defs>
  <clipPath id="pf6f3fbf64a">
   <rect height="266.112" width="357.12" x="57.6" y="41.472"/>
  </clipPath>
 </defs>
</svg>
