<?xml version="1.0" encoding="utf-8" standalone="no"?>
<!DOCTYPE svg PUBLIC "-//W3C//DTD SVG 1.1//EN"
  "http://www.w3.org/Graphics/SVG/1.1/DTD/svg11.dtd">
<!-- Created with matplotlib (http://matplotlib.org/) -->
<svg height="345pt" version="1.1" viewBox="0 0 460 345" width="460pt" xmlns="http://www.w3.org/2000/svg" xmlns:xlink="http://www.w3.org/1999/xlink">
 <defs>
  <style type="text/css">
*{stroke-linecap:butt;stroke-linejoin:round;}
  </style>
 </defs>
 <g id="figure_1">
  <g id="patch_1">
   <path d="M 0 345.6 
L 460.8 345.6 
L 460.8 0 
L 0 0 
z
" style="fill:#ffffff;"/>
  </g>
  <g id="axes_1">
   <g id="PathCollection_1">
    <defs>
     <path d="M 0 3 
C 0.795609 3 1.55874 2.683901 2.12132 2.12132 
C 2.683901 1.55874 3 0.795609 3 0 
C 3 -0.795609 2.683901 -1.55874 2.12132 -2.12132 
C 1.55874 -2.683901 0.795609 -3 0 -3 
C -0.795609 -3 -1.55874 -2.683901 -2.12132 -2.12132 
C -2.683901 -1.55874 -3 -0.795609 -3 0 
C -3 0.795609 -2.683901 1.55874 -2.12132 2.12132 
C -1.55874 2.683901 -0.795609 3 0 3 
z
" id="m50731507f1" style="stroke:#000000;"/>
    </defs>
    <g clip-path="url(#p165568d46f)">
     <use style="stroke:#000000;" x="236.16" xlink:href="#m50731507f1" y="222.551791"/>
     <use style="stroke:#000000;" x="212.148105" xlink:href="#m50731507f1" y="198.539895"/>
     <use style="stroke:#000000;" x="260.171895" xlink:href="#m50731507f1" y="198.539895"/>
     <use style="stroke:#000000;" x="188.136209" xlink:href="#m50731507f1" y="174.528"/>
     <use style="stroke:#000000;" x="284.183791" xlink:href="#m50731507f1" y="174.528"/>
     <use style="stroke:#000000;" x="212.148105" xlink:href="#m50731507f1" y="150.516105"/>
     <use style="stroke:#000000;" x="260.171895" xlink:href="#m50731507f1" y="150.516105"/>
     <use style="stroke:#000000;" x="240.962379" xlink:href="#m50731507f1" y="121.70183"/>
    </g>
   </g>
   <g id="PathCollection_2">
    <defs>
     <path d="M 0 3 
C 0.795609 3 1.55874 2.683901 2.12132 2.12132 
C 2.683901 1.55874 3 0.795609 3 0 
C 3 -0.795609 2.683901 -1.55874 2.12132 -2.12132 
C 1.55874 -2.683901 0.795609 -3 0 -3 
C -0.795609 -3 -1.55874 -2.683901 -2.12132 -2.12132 
C -2.683901 -1.55874 -3 -0.795609 -3 0 
C -3 0.795609 -2.683901 1.55874 -2.12132 2.12132 
C -1.55874 2.683901 -0.795609 3 0 3 
z
" id="m154f3f7a50" style="stroke:#ffffff;"/>
    </defs>
    <g clip-path="url(#p165568d46f)">
     <use style="fill:#ffffff;stroke:#ffffff;" x="116.100523" xlink:href="#m154f3f7a50" y="294.587477"/>
     <use style="fill:#ffffff;stroke:#ffffff;" x="116.100523" xlink:href="#m154f3f7a50" y="54.468523"/>
     <use style="fill:#ffffff;stroke:#ffffff;" x="356.219477" xlink:href="#m154f3f7a50" y="294.587477"/>
     <use style="fill:#ffffff;stroke:#ffffff;" x="356.219477" xlink:href="#m154f3f7a50" y="54.468523"/>
    </g>
   </g>
  </g>
 </g>
 <defs>
  <clipPath id="p165568d46f">
   <rect height="266.112" width="357.12" x="57.6" y="41.472"/>
  </clipPath>
 </defs>
</svg>
