<?xml version="1.0" encoding="utf-8" standalone="no"?>
<!DOCTYPE svg PUBLIC "-//W3C//DTD SVG 1.1//EN"
  "http://www.w3.org/Graphics/SVG/1.1/DTD/svg11.dtd">
<!-- Created with matplotlib (http://matplotlib.org/) -->
<svg height="345pt" version="1.1" viewBox="0 0 460 345" width="460pt" xmlns="http://www.w3.org/2000/svg" xmlns:xlink="http://www.w3.org/1999/xlink">
 <defs>
  <style type="text/css">
*{stroke-linecap:butt;stroke-linejoin:round;}
  </style>
 </defs>
 <g id="figure_1">
  <g id="patch_1">
   <path d="M 0 345.6 
L 460.8 345.6 
L 460.8 0 
L 0 0 
z
" style="fill:#ffffff;"/>
  </g>
  <g id="axes_1">
   <g id="PathCollection_1">
    <defs>
     <path d="M 0 3 
C 0.795609 3 1.55874 2.683901 2.12132 2.12132 
C 2.683901 1.55874 3 0.795609 3 0 
C 3 -0.795609 2.683901 -1.55874 2.12132 -2.12132 
C 1.55874 -2.683901 0.795609 -3 0 -3 
C -0.795609 -3 -1.55874 -2.683901 -2.12132 -2.12132 
C -2.683901 -1.55874 -3 -0.795609 -3 0 
C -3 0.795609 -2.683901 1.55874 -2.12132 2.12132 
C -1.55874 2.683901 -0.795609 3 0 3 
z
" id="m9310f24f9a" style="stroke:#ffffff;"/>
    </defs>
    <g clip-path="url(#p539d83d75b)">
     <use style="fill:#ffffff;stroke:#ffffff;" x="115.20432" xlink:href="#m9310f24f9a" y="295.48368"/>
     <use style="fill:#ffffff;stroke:#ffffff;" x="115.20432" xlink:href="#m9310f24f9a" y="53.57232"/>
     <use style="fill:#ffffff;stroke:#ffffff;" x="357.11568" xlink:href="#m9310f24f9a" y="295.48368"/>
     <use style="fill:#ffffff;stroke:#ffffff;" x="357.11568" xlink:href="#m9310f24f9a" y="53.57232"/>
    </g>
   </g>
   <g id="PathCollection_2">
    <defs>
     <path d="M 0 3 
C 0.795609 3 1.55874 2.683901 2.12132 2.12132 
C 2.683901 1.55874 3 0.795609 3 0 
C 3 -0.795609 2.683901 -1.55874 2.12132 -2.12132 
C 1.55874 -2.683901 0.795609 -3 0 -3 
C -0.795609 -3 -1.55874 -2.683901 -2.12132 -2.12132 
C -2.683901 -1.55874 -3 -0.795609 -3 0 
C -3 0.795609 -2.683901 1.55874 -2.12132 2.12132 
C -1.55874 2.683901 -0.795609 3 0 3 
z
" id="m52f6910a28" style="stroke:#000000;"/>
    </defs>
    <g clip-path="url(#p539d83d75b)">
     <use style="stroke:#000000;" x="173.263046" xlink:href="#m52f6910a28" y="247.101408"/>
     <use style="stroke:#000000;" x="255.512909" xlink:href="#m52f6910a28" y="203.557363"/>
     <use style="stroke:#000000;" x="265.189363" xlink:href="#m52f6910a28" y="169.689773"/>
     <use style="stroke:#000000;" x="216.807091" xlink:href="#m52f6910a28" y="222.910272"/>
     <use style="stroke:#000000;" x="168.424819" xlink:href="#m52f6910a28" y="106.792819"/>
     <use style="stroke:#000000;" x="284.542272" xlink:href="#m52f6910a28" y="174.528"/>
     <use style="stroke:#000000;" x="284.542272" xlink:href="#m52f6910a28" y="218.072045"/>
     <use style="stroke:#000000;" x="250.674682" xlink:href="#m52f6910a28" y="126.145728"/>
     <use style="stroke:#000000;" x="216.807091" xlink:href="#m52f6910a28" y="193.880909"/>
    </g>
   </g>
  </g>
 </g>
 <defs>
  <clipPath id="p539d83d75b">
   <rect height="266.112" width="357.12" x="57.6" y="41.472"/>
  </clipPath>
 </defs>
</svg>
