<?xml version="1.0" encoding="utf-8" standalone="no"?>
<!DOCTYPE svg PUBLIC "-//W3C//DTD SVG 1.1//EN"
  "http://www.w3.org/Graphics/SVG/1.1/DTD/svg11.dtd">
<!-- Created with matplotlib (http://matplotlib.org/) -->
<svg height="345pt" version="1.1" viewBox="0 0 460 345" width="460pt" xmlns="http://www.w3.org/2000/svg" xmlns:xlink="http://www.w3.org/1999/xlink">
 <defs>
  <style type="text/css">
*{stroke-linecap:butt;stroke-linejoin:round;}
  </style>
 </defs>
 <g id="figure_1">
  <g id="patch_1">
   <path d="M 0 345.6 
L 460.8 345.6 
L 460.8 0 
L 0 0 
z
" style="fill:#ffffff;"/>
  </g>
  <g id="axes_1">
   <g id="PathCollection_1">
    <defs>
     <path d="M 0 3 
C 0.795609 3 1.55874 2.683901 2.12132 2.12132 
C 2.683901 1.55874 3 0.795609 3 0 
C 3 -0.795609 2.683901 -1.55874 2.12132 -2.12132 
C 1.55874 -2.683901 0.795609 -3 0 -3 
C -0.795609 -3 -1.55874 -2.683901 -2.12132 -2.12132 
C -2.683901 -1.55874 -3 -0.795609 -3 0 
C -3 0.795609 -2.683901 1.55874 -2.12132 2.12132 
C -1.55874 2.683901 -0.795609 3 0 3 
z
" id="m123f4f9b0a" style="stroke:#ffffff;"/>
    </defs>
    <g clip-path="url(#pe0cd40c043)">
     <use style="fill:#ffffff;stroke:#ffffff;" x="115.20432" xlink:href="#m123f4f9b0a" y="295.48368"/>
     <use style="fill:#ffffff;stroke:#ffffff;" x="115.20432" xlink:href="#m123f4f9b0a" y="53.57232"/>
     <use style="fill:#ffffff;stroke:#ffffff;" x="357.11568" xlink:href="#m123f4f9b0a" y="295.48368"/>
     <use style="fill:#ffffff;stroke:#ffffff;" x="357.11568" xlink:href="#m123f4f9b0a" y="53.57232"/>
    </g>
   </g>
   <g id="PathCollection_2">
    <defs>
     <path d="M 0 3 
C 0.795609 3 1.55874 2.683901 2.12132 2.12132 
C 2.683901 1.55874 3 0.795609 3 0 
C 3 -0.795609 2.683901 -1.55874 2.12132 -2.12132 
C 1.55874 -2.683901 0.795609 -3 0 -3 
C -0.795609 -3 -1.55874 -2.683901 -2.12132 -2.12132 
C -2.683901 -1.55874 -3 -0.795609 -3 0 
C -3 0.795609 -2.683901 1.55874 -2.12132 2.12132 
C -1.55874 2.683901 -0.795609 3 0 3 
z
" id="m787a56e785" style="stroke:#000000;"/>
    </defs>
    <g clip-path="url(#pe0cd40c043)">
     <use style="stroke:#000000;" x="255.512909" xlink:href="#m787a56e785" y="121.307501"/>
     <use style="stroke:#000000;" x="231.321773" xlink:href="#m787a56e785" y="116.469274"/>
     <use style="stroke:#000000;" x="265.189363" xlink:href="#m787a56e785" y="111.631046"/>
     <use style="stroke:#000000;" x="303.895181" xlink:href="#m787a56e785" y="169.689773"/>
     <use style="stroke:#000000;" x="187.777728" xlink:href="#m787a56e785" y="189.042682"/>
     <use style="stroke:#000000;" x="294.218726" xlink:href="#m787a56e785" y="106.792819"/>
     <use style="stroke:#000000;" x="260.351136" xlink:href="#m787a56e785" y="135.822182"/>
     <use style="stroke:#000000;" x="240.998227" xlink:href="#m787a56e785" y="135.822182"/>
     <use style="stroke:#000000;" x="274.865818" xlink:href="#m787a56e785" y="164.851546"/>
    </g>
   </g>
  </g>
 </g>
 <defs>
  <clipPath id="pe0cd40c043">
   <rect height="266.112" width="357.12" x="57.6" y="41.472"/>
  </clipPath>
 </defs>
</svg>
