<?xml version="1.0" encoding="utf-8" standalone="no"?>
<!DOCTYPE svg PUBLIC "-//W3C//DTD SVG 1.1//EN"
  "http://www.w3.org/Graphics/SVG/1.1/DTD/svg11.dtd">
<!-- Created with matplotlib (http://matplotlib.org/) -->
<svg height="345pt" version="1.1" viewBox="0 0 460 345" width="460pt" xmlns="http://www.w3.org/2000/svg" xmlns:xlink="http://www.w3.org/1999/xlink">
 <defs>
  <style type="text/css">
*{stroke-linecap:butt;stroke-linejoin:round;}
  </style>
 </defs>
 <g id="figure_1">
  <g id="patch_1">
   <path d="M 0 345.6 
L 460.8 345.6 
L 460.8 0 
L 0 0 
z
" style="fill:#ffffff;"/>
  </g>
  <g id="axes_1">
   <g id="PathCollection_1">
    <defs>
     <path d="M 0 3 
C 0.795609 3 1.55874 2.683901 2.12132 2.12132 
C 2.683901 1.55874 3 0.795609 3 0 
C 3 -0.795609 2.683901 -1.55874 2.12132 -2.12132 
C 1.55874 -2.683901 0.795609 -3 0 -3 
C -0.795609 -3 -1.55874 -2.683901 -2.12132 -2.12132 
C -2.683901 -1.55874 -3 -0.795609 -3 0 
C -3 0.795609 -2.683901 1.55874 -2.12132 2.12132 
C -1.55874 2.683901 -0.795609 3 0 3 
z
" id="m8745dbac32" style="stroke:#000000;"/>
    </defs>
    <g clip-path="url(#p9e2b5234ae)">
     <use style="stroke:#000000;" x="207.253503" xlink:href="#m8745dbac32" y="203.434497"/>
     <use style="stroke:#000000;" x="207.253503" xlink:href="#m8745dbac32" y="184.163499"/>
     <use style="stroke:#000000;" x="207.253503" xlink:href="#m8745dbac32" y="164.892501"/>
     <use style="stroke:#000000;" x="207.253503" xlink:href="#m8745dbac32" y="145.621503"/>
     <use style="stroke:#000000;" x="226.524501" xlink:href="#m8745dbac32" y="164.892501"/>
     <use style="stroke:#000000;" x="226.524501" xlink:href="#m8745dbac32" y="145.621503"/>
     <use style="stroke:#000000;" x="240.977749" xlink:href="#m8745dbac32" y="169.710251"/>
     <use style="stroke:#000000;" x="245.795499" xlink:href="#m8745dbac32" y="145.621503"/>
     <use style="stroke:#000000;" x="265.066497" xlink:href="#m8745dbac32" y="145.621503"/>
    </g>
   </g>
   <g id="PathCollection_2">
    <defs>
     <path d="M 0 3 
C 0.795609 3 1.55874 2.683901 2.12132 2.12132 
C 2.683901 1.55874 3 0.795609 3 0 
C 3 -0.795609 2.683901 -1.55874 2.12132 -2.12132 
C 1.55874 -2.683901 0.795609 -3 0 -3 
C -0.795609 -3 -1.55874 -2.683901 -2.12132 -2.12132 
C -2.683901 -1.55874 -3 -0.795609 -3 0 
C -3 0.795609 -2.683901 1.55874 -2.12132 2.12132 
C -1.55874 2.683901 -0.795609 3 0 3 
z
" id="ma7ccb836b4" style="stroke:#ffffff;"/>
    </defs>
    <g clip-path="url(#p9e2b5234ae)">
     <use style="fill:#ffffff;stroke:#ffffff;" x="115.716264" xlink:href="#ma7ccb836b4" y="294.971736"/>
     <use style="fill:#ffffff;stroke:#ffffff;" x="115.716264" xlink:href="#ma7ccb836b4" y="54.084264"/>
     <use style="fill:#ffffff;stroke:#ffffff;" x="356.603736" xlink:href="#ma7ccb836b4" y="294.971736"/>
     <use style="fill:#ffffff;stroke:#ffffff;" x="356.603736" xlink:href="#ma7ccb836b4" y="54.084264"/>
    </g>
   </g>
  </g>
 </g>
 <defs>
  <clipPath id="p9e2b5234ae">
   <rect height="266.112" width="357.12" x="57.6" y="41.472"/>
  </clipPath>
 </defs>
</svg>
