<?xml version="1.0" encoding="utf-8" standalone="no"?>
<!DOCTYPE svg PUBLIC "-//W3C//DTD SVG 1.1//EN"
  "http://www.w3.org/Graphics/SVG/1.1/DTD/svg11.dtd">
<!-- Created with matplotlib (http://matplotlib.org/) -->
<svg height="345pt" version="1.1" viewBox="0 0 460 345" width="460pt" xmlns="http://www.w3.org/2000/svg" xmlns:xlink="http://www.w3.org/1999/xlink">
 <defs>
  <style type="text/css">
*{stroke-linecap:butt;stroke-linejoin:round;}
  </style>
 </defs>
 <g id="figure_1">
  <g id="patch_1">
   <path d="M 0 345.6 
L 460.8 345.6 
L 460.8 0 
L 0 0 
z
" style="fill:#ffffff;"/>
  </g>
  <g id="axes_1">
   <g id="PathCollection_1">
    <defs>
     <path d="M 0 3 
C 0.795609 3 1.55874 2.683901 2.12132 2.12132 
C 2.683901 1.55874 3 0.795609 3 0 
C 3 -0.795609 2.683901 -1.55874 2.12132 -2.12132 
C 1.55874 -2.683901 0.795609 -3 0 -3 
C -0.795609 -3 -1.55874 -2.683901 -2.12132 -2.12132 
C -2.683901 -1.55874 -3 -0.795609 -3 0 
C -3 0.795609 -2.683901 1.55874 -2.12132 2.12132 
C -1.55874 2.683901 -0.795609 3 0 3 
z
" id="m1b6cec4e42" style="stroke:#000000;"/>
    </defs>
    <g clip-path="url(#p00d88b3ab4)">
     <use style="stroke:#000000;" x="216.936855" xlink:href="#m1b6cec4e42" y="203.362717"/>
     <use style="stroke:#000000;" x="250.577359" xlink:href="#m1b6cec4e42" y="188.945359"/>
     <use style="stroke:#000000;" x="197.71371" xlink:href="#m1b6cec4e42" y="155.304855"/>
     <use style="stroke:#000000;" x="207.325283" xlink:href="#m1b6cec4e42" y="145.693283"/>
     <use style="stroke:#000000;" x="236.16" xlink:href="#m1b6cec4e42" y="174.528"/>
     <use style="stroke:#000000;" x="231.354214" xlink:href="#m1b6cec4e42" y="145.693283"/>
     <use style="stroke:#000000;" x="245.771572" xlink:href="#m1b6cec4e42" y="164.916428"/>
     <use style="stroke:#000000;" x="245.771572" xlink:href="#m1b6cec4e42" y="145.693283"/>
     <use style="stroke:#000000;" x="250.577359" xlink:href="#m1b6cec4e42" y="112.052779"/>
    </g>
   </g>
   <g id="PathCollection_2">
    <defs>
     <path d="M 0 3 
C 0.795609 3 1.55874 2.683901 2.12132 2.12132 
C 2.683901 1.55874 3 0.795609 3 0 
C 3 -0.795609 2.683901 -1.55874 2.12132 -2.12132 
C 1.55874 -2.683901 0.795609 -3 0 -3 
C -0.795609 -3 -1.55874 -2.683901 -2.12132 -2.12132 
C -2.683901 -1.55874 -3 -0.795609 -3 0 
C -3 0.795609 -2.683901 1.55874 -2.12132 2.12132 
C -1.55874 2.683901 -0.795609 3 0 3 
z
" id="ma1369ca84f" style="stroke:#ffffff;"/>
    </defs>
    <g clip-path="url(#p00d88b3ab4)">
     <use style="fill:#ffffff;stroke:#ffffff;" x="116.015344" xlink:href="#ma1369ca84f" y="294.672656"/>
     <use style="fill:#ffffff;stroke:#ffffff;" x="116.015344" xlink:href="#ma1369ca84f" y="54.383344"/>
     <use style="fill:#ffffff;stroke:#ffffff;" x="356.304656" xlink:href="#ma1369ca84f" y="294.672656"/>
     <use style="fill:#ffffff;stroke:#ffffff;" x="356.304656" xlink:href="#ma1369ca84f" y="54.383344"/>
    </g>
   </g>
  </g>
 </g>
 <defs>
  <clipPath id="p00d88b3ab4">
   <rect height="266.112" width="357.12" x="57.6" y="41.472"/>
  </clipPath>
 </defs>
</svg>
