<?xml version="1.0" encoding="utf-8" standalone="no"?>
<!DOCTYPE svg PUBLIC "-//W3C//DTD SVG 1.1//EN"
  "http://www.w3.org/Graphics/SVG/1.1/DTD/svg11.dtd">
<!-- Created with matplotlib (http://matplotlib.org/) -->
<svg height="345pt" version="1.1" viewBox="0 0 460 345" width="460pt" xmlns="http://www.w3.org/2000/svg" xmlns:xlink="http://www.w3.org/1999/xlink">
 <defs>
  <style type="text/css">
*{stroke-linecap:butt;stroke-linejoin:round;}
  </style>
 </defs>
 <g id="figure_1">
  <g id="patch_1">
   <path d="M 0 345.6 
L 460.8 345.6 
L 460.8 0 
L 0 0 
z
" style="fill:#ffffff;"/>
  </g>
  <g id="axes_1">
   <g id="PathCollection_1">
    <defs>
     <path d="M 0 3 
C 0.795609 3 1.55874 2.683901 2.12132 2.12132 
C 2.683901 1.55874 3 0.795609 3 0 
C 3 -0.795609 2.683901 -1.55874 2.12132 -2.12132 
C 1.55874 -2.683901 0.795609 -3 0 -3 
C -0.795609 -3 -1.55874 -2.683901 -2.12132 -2.12132 
C -2.683901 -1.55874 -3 -0.795609 -3 0 
C -3 0.795609 -2.683901 1.55874 -2.12132 2.12132 
C -1.55874 2.683901 -0.795609 3 0 3 
z
" id="m3879835d7d" style="stroke:#000000;"/>
    </defs>
    <g clip-path="url(#p7178393ddb)">
     <use style="stroke:#000000;" x="202.567163" xlink:href="#m3879835d7d" y="203.321861"/>
     <use style="stroke:#000000;" x="226.562046" xlink:href="#m3879835d7d" y="251.311628"/>
     <use style="stroke:#000000;" x="207.366139" xlink:href="#m3879835d7d" y="164.930046"/>
     <use style="stroke:#000000;" x="202.567163" xlink:href="#m3879835d7d" y="140.935163"/>
     <use style="stroke:#000000;" x="216.964093" xlink:href="#m3879835d7d" y="160.13107"/>
     <use style="stroke:#000000;" x="226.562046" xlink:href="#m3879835d7d" y="145.734139"/>
     <use style="stroke:#000000;" x="245.757954" xlink:href="#m3879835d7d" y="164.930046"/>
     <use style="stroke:#000000;" x="245.757954" xlink:href="#m3879835d7d" y="145.734139"/>
     <use style="stroke:#000000;" x="264.953861" xlink:href="#m3879835d7d" y="145.734139"/>
    </g>
   </g>
   <g id="PathCollection_2">
    <defs>
     <path d="M 0 3 
C 0.795609 3 1.55874 2.683901 2.12132 2.12132 
C 2.683901 1.55874 3 0.795609 3 0 
C 3 -0.795609 2.683901 -1.55874 2.12132 -2.12132 
C 1.55874 -2.683901 0.795609 -3 0 -3 
C -0.795609 -3 -1.55874 -2.683901 -2.12132 -2.12132 
C -2.683901 -1.55874 -3 -0.795609 -3 0 
C -3 0.795609 -2.683901 1.55874 -2.12132 2.12132 
C -1.55874 2.683901 -0.795609 3 0 3 
z
" id="m81ce092b44" style="stroke:#ffffff;"/>
    </defs>
    <g clip-path="url(#p7178393ddb)">
     <use style="fill:#ffffff;stroke:#ffffff;" x="116.185581" xlink:href="#m81ce092b44" y="294.502419"/>
     <use style="fill:#ffffff;stroke:#ffffff;" x="116.185581" xlink:href="#m81ce092b44" y="54.553581"/>
     <use style="fill:#ffffff;stroke:#ffffff;" x="356.134419" xlink:href="#m81ce092b44" y="294.502419"/>
     <use style="fill:#ffffff;stroke:#ffffff;" x="356.134419" xlink:href="#m81ce092b44" y="54.553581"/>
    </g>
   </g>
  </g>
 </g>
 <defs>
  <clipPath id="p7178393ddb">
   <rect height="266.112" width="357.12" x="57.6" y="41.472"/>
  </clipPath>
 </defs>
</svg>
