<?xml version="1.0" encoding="utf-8" standalone="no"?>
<!DOCTYPE svg PUBLIC "-//W3C//DTD SVG 1.1//EN"
  "http://www.w3.org/Graphics/SVG/1.1/DTD/svg11.dtd">
<!-- Created with matplotlib (http://matplotlib.org/) -->
<svg height="345pt" version="1.1" viewBox="0 0 460 345" width="460pt" xmlns="http://www.w3.org/2000/svg" xmlns:xlink="http://www.w3.org/1999/xlink">
 <defs>
  <style type="text/css">
*{stroke-linecap:butt;stroke-linejoin:round;}
  </style>
 </defs>
 <g id="figure_1">
  <g id="patch_1">
   <path d="M 0 345.6 
L 460.8 345.6 
L 460.8 0 
L 0 0 
z
" style="fill:#ffffff;"/>
  </g>
  <g id="axes_1">
   <g id="PathCollection_1">
    <defs>
     <path d="M 0 3 
C 0.795609 3 1.55874 2.683901 2.12132 2.12132 
C 2.683901 1.55874 3 0.795609 3 0 
C 3 -0.795609 2.683901 -1.55874 2.12132 -2.12132 
C 1.55874 -2.683901 0.795609 -3 0 -3 
C -0.795609 -3 -1.55874 -2.683901 -2.12132 -2.12132 
C -2.683901 -1.55874 -3 -0.795609 -3 0 
C -3 0.795609 -2.683901 1.55874 -2.12132 2.12132 
C -1.55874 2.683901 -0.795609 3 0 3 
z
" id="m9689cb90f4" style="stroke:#000000;"/>
    </defs>
    <g clip-path="url(#p8d1d174657)">
     <use style="stroke:#000000;" x="216.882147" xlink:href="#m9689cb90f4" y="193.805853"/>
     <use style="stroke:#000000;" x="207.24322" xlink:href="#m9689cb90f4" y="184.166927"/>
     <use style="stroke:#000000;" x="207.24322" xlink:href="#m9689cb90f4" y="164.889073"/>
     <use style="stroke:#000000;" x="207.24322" xlink:href="#m9689cb90f4" y="145.61122"/>
     <use style="stroke:#000000;" x="231.340537" xlink:href="#m9689cb90f4" y="160.06961"/>
     <use style="stroke:#000000;" x="221.70161" xlink:href="#m9689cb90f4" y="140.791757"/>
     <use style="stroke:#000000;" x="240.979463" xlink:href="#m9689cb90f4" y="174.528"/>
     <use style="stroke:#000000;" x="245.798927" xlink:href="#m9689cb90f4" y="145.61122"/>
     <use style="stroke:#000000;" x="265.07678" xlink:href="#m9689cb90f4" y="145.61122"/>
    </g>
   </g>
   <g id="PathCollection_2">
    <defs>
     <path d="M 0 3 
C 0.795609 3 1.55874 2.683901 2.12132 2.12132 
C 2.683901 1.55874 3 0.795609 3 0 
C 3 -0.795609 2.683901 -1.55874 2.12132 -2.12132 
C 1.55874 -2.683901 0.795609 -3 0 -3 
C -0.795609 -3 -1.55874 -2.683901 -2.12132 -2.12132 
C -2.683901 -1.55874 -3 -0.795609 -3 0 
C -3 0.795609 -2.683901 1.55874 -2.12132 2.12132 
C -1.55874 2.683901 -0.795609 3 0 3 
z
" id="m5c11c87364" style="stroke:#ffffff;"/>
    </defs>
    <g clip-path="url(#p8d1d174657)">
     <use style="fill:#ffffff;stroke:#ffffff;" x="115.673417" xlink:href="#m5c11c87364" y="295.014583"/>
     <use style="fill:#ffffff;stroke:#ffffff;" x="115.673417" xlink:href="#m5c11c87364" y="54.041417"/>
     <use style="fill:#ffffff;stroke:#ffffff;" x="356.646583" xlink:href="#m5c11c87364" y="295.014583"/>
     <use style="fill:#ffffff;stroke:#ffffff;" x="356.646583" xlink:href="#m5c11c87364" y="54.041417"/>
    </g>
   </g>
  </g>
 </g>
 <defs>
  <clipPath id="p8d1d174657">
   <rect height="266.112" width="357.12" x="57.6" y="41.472"/>
  </clipPath>
 </defs>
</svg>
