<?xml version="1.0" encoding="utf-8" standalone="no"?>
<!DOCTYPE svg PUBLIC "-//W3C//DTD SVG 1.1//EN"
  "http://www.w3.org/Graphics/SVG/1.1/DTD/svg11.dtd">
<!-- Created with matplotlib (http://matplotlib.org/) -->
<svg height="345pt" version="1.1" viewBox="0 0 460 345" width="460pt" xmlns="http://www.w3.org/2000/svg" xmlns:xlink="http://www.w3.org/1999/xlink">
 <defs>
  <style type="text/css">
*{stroke-linecap:butt;stroke-linejoin:round;}
  </style>
 </defs>
 <g id="figure_1">
  <g id="patch_1">
   <path d="M 0 345.6 
L 460.8 345.6 
L 460.8 0 
L 0 0 
z
" style="fill:#ffffff;"/>
  </g>
  <g id="axes_1">
   <g id="PathCollection_1">
    <defs>
     <path d="M 0 3 
C 0.795609 3 1.55874 2.683901 2.12132 2.12132 
C 2.683901 1.55874 3 0.795609 3 0 
C 3 -0.795609 2.683901 -1.55874 2.12132 -2.12132 
C 1.55874 -2.683901 0.795609 -3 0 -3 
C -0.795609 -3 -1.55874 -2.683901 -2.12132 -2.12132 
C -2.683901 -1.55874 -3 -0.795609 -3 0 
C -3 0.795609 -2.683901 1.55874 -2.12132 2.12132 
C -1.55874 2.683901 -0.795609 3 0 3 
z
" id="mc52638b7e1" style="stroke:#000000;"/>
    </defs>
    <g clip-path="url(#p349fa642dc)">
     <use style="stroke:#000000;" x="197.645398" xlink:href="#mc52638b7e1" y="203.413952"/>
     <use style="stroke:#000000;" x="207.274048" xlink:href="#mc52638b7e1" y="184.156651"/>
     <use style="stroke:#000000;" x="212.088373" xlink:href="#mc52638b7e1" y="164.899349"/>
     <use style="stroke:#000000;" x="207.274048" xlink:href="#mc52638b7e1" y="145.642048"/>
     <use style="stroke:#000000;" x="226.531349" xlink:href="#mc52638b7e1" y="164.899349"/>
     <use style="stroke:#000000;" x="226.531349" xlink:href="#mc52638b7e1" y="145.642048"/>
     <use style="stroke:#000000;" x="240.974325" xlink:href="#mc52638b7e1" y="164.899349"/>
     <use style="stroke:#000000;" x="245.788651" xlink:href="#mc52638b7e1" y="145.642048"/>
     <use style="stroke:#000000;" x="260.231627" xlink:href="#mc52638b7e1" y="136.013398"/>
    </g>
   </g>
   <g id="PathCollection_2">
    <defs>
     <path d="M 0 3 
C 0.795609 3 1.55874 2.683901 2.12132 2.12132 
C 2.683901 1.55874 3 0.795609 3 0 
C 3 -0.795609 2.683901 -1.55874 2.12132 -2.12132 
C 1.55874 -2.683901 0.795609 -3 0 -3 
C -0.795609 -3 -1.55874 -2.683901 -2.12132 -2.12132 
C -2.683901 -1.55874 -3 -0.795609 -3 0 
C -3 0.795609 -2.683901 1.55874 -2.12132 2.12132 
C -1.55874 2.683901 -0.795609 3 0 3 
z
" id="m7bd8d1c76b" style="stroke:#ffffff;"/>
    </defs>
    <g clip-path="url(#p349fa642dc)">
     <use style="fill:#ffffff;stroke:#ffffff;" x="115.801867" xlink:href="#m7bd8d1c76b" y="294.886133"/>
     <use style="fill:#ffffff;stroke:#ffffff;" x="115.801867" xlink:href="#m7bd8d1c76b" y="54.169867"/>
     <use style="fill:#ffffff;stroke:#ffffff;" x="356.518133" xlink:href="#m7bd8d1c76b" y="294.886133"/>
     <use style="fill:#ffffff;stroke:#ffffff;" x="356.518133" xlink:href="#m7bd8d1c76b" y="54.169867"/>
    </g>
   </g>
  </g>
 </g>
 <defs>
  <clipPath id="p349fa642dc">
   <rect height="266.112" width="357.12" x="57.6" y="41.472"/>
  </clipPath>
 </defs>
</svg>
