<?xml version="1.0" encoding="utf-8" standalone="no"?>
<!DOCTYPE svg PUBLIC "-//W3C//DTD SVG 1.1//EN"
  "http://www.w3.org/Graphics/SVG/1.1/DTD/svg11.dtd">
<!-- Created with matplotlib (http://matplotlib.org/) -->
<svg height="345pt" version="1.1" viewBox="0 0 460 345" width="460pt" xmlns="http://www.w3.org/2000/svg" xmlns:xlink="http://www.w3.org/1999/xlink">
 <defs>
  <style type="text/css">
*{stroke-linecap:butt;stroke-linejoin:round;}
  </style>
 </defs>
 <g id="figure_1">
  <g id="patch_1">
   <path d="M 0 345.6 
L 460.8 345.6 
L 460.8 0 
L 0 0 
z
" style="fill:#ffffff;"/>
  </g>
  <g id="axes_1">
   <g id="PathCollection_1">
    <defs>
     <path d="M 0 3 
C 0.795609 3 1.55874 2.683901 2.12132 2.12132 
C 2.683901 1.55874 3 0.795609 3 0 
C 3 -0.795609 2.683901 -1.55874 2.12132 -2.12132 
C 1.55874 -2.683901 0.795609 -3 0 -3 
C -0.795609 -3 -1.55874 -2.683901 -2.12132 -2.12132 
C -2.683901 -1.55874 -3 -0.795609 -3 0 
C -3 0.795609 -2.683901 1.55874 -2.12132 2.12132 
C -1.55874 2.683901 -0.795609 3 0 3 
z
" id="m3b27104a64" style="stroke:#000000;"/>
    </defs>
    <g clip-path="url(#p6176e31174)">
     <use style="stroke:#000000;" x="207.28431" xlink:href="#m3b27104a64" y="213.028921"/>
     <use style="stroke:#000000;" x="207.28431" xlink:href="#m3b27104a64" y="184.15323"/>
     <use style="stroke:#000000;" x="207.28431" xlink:href="#m3b27104a64" y="164.90277"/>
     <use style="stroke:#000000;" x="207.28431" xlink:href="#m3b27104a64" y="145.65231"/>
     <use style="stroke:#000000;" x="226.53477" xlink:href="#m3b27104a64" y="164.90277"/>
     <use style="stroke:#000000;" x="192.846464" xlink:href="#m3b27104a64" y="169.715385"/>
     <use style="stroke:#000000;" x="245.78523" xlink:href="#m3b27104a64" y="160.090155"/>
     <use style="stroke:#000000;" x="245.78523" xlink:href="#m3b27104a64" y="145.65231"/>
     <use style="stroke:#000000;" x="255.41046" xlink:href="#m3b27104a64" y="140.839695"/>
    </g>
   </g>
   <g id="PathCollection_2">
    <defs>
     <path d="M 0 3 
C 0.795609 3 1.55874 2.683901 2.12132 2.12132 
C 2.683901 1.55874 3 0.795609 3 0 
C 3 -0.795609 2.683901 -1.55874 2.12132 -2.12132 
C 1.55874 -2.683901 0.795609 -3 0 -3 
C -0.795609 -3 -1.55874 -2.683901 -2.12132 -2.12132 
C -2.683901 -1.55874 -3 -0.795609 -3 0 
C -3 0.795609 -2.683901 1.55874 -2.12132 2.12132 
C -1.55874 2.683901 -0.795609 3 0 3 
z
" id="m9c466164df" style="stroke:#ffffff;"/>
    </defs>
    <g clip-path="url(#p6176e31174)">
     <use style="fill:#ffffff;stroke:#ffffff;" x="115.844623" xlink:href="#m9c466164df" y="294.843377"/>
     <use style="fill:#ffffff;stroke:#ffffff;" x="115.844623" xlink:href="#m9c466164df" y="54.212623"/>
     <use style="fill:#ffffff;stroke:#ffffff;" x="356.475377" xlink:href="#m9c466164df" y="294.843377"/>
     <use style="fill:#ffffff;stroke:#ffffff;" x="356.475377" xlink:href="#m9c466164df" y="54.212623"/>
    </g>
   </g>
  </g>
 </g>
 <defs>
  <clipPath id="p6176e31174">
   <rect height="266.112" width="357.12" x="57.6" y="41.472"/>
  </clipPath>
 </defs>
</svg>
