<?xml version="1.0" encoding="utf-8" standalone="no"?>
<!DOCTYPE svg PUBLIC "-//W3C//DTD SVG 1.1//EN"
  "http://www.w3.org/Graphics/SVG/1.1/DTD/svg11.dtd">
<!-- Created with matplotlib (http://matplotlib.org/) -->
<svg height="345pt" version="1.1" viewBox="0 0 460 345" width="460pt" xmlns="http://www.w3.org/2000/svg" xmlns:xlink="http://www.w3.org/1999/xlink">
 <defs>
  <style type="text/css">
*{stroke-linecap:butt;stroke-linejoin:round;}
  </style>
 </defs>
 <g id="figure_1">
  <g id="patch_1">
   <path d="M 0 345.6 
L 460.8 345.6 
L 460.8 0 
L 0 0 
z
" style="fill:#ffffff;"/>
  </g>
  <g id="axes_1">
   <g id="PathCollection_1">
    <defs>
     <path d="M 0 3 
C 0.795609 3 1.55874 2.683901 2.12132 2.12132 
C 2.683901 1.55874 3 0.795609 3 0 
C 3 -0.795609 2.683901 -1.55874 2.12132 -2.12132 
C 1.55874 -2.683901 0.795609 -3 0 -3 
C -0.795609 -3 -1.55874 -2.683901 -2.12132 -2.12132 
C -2.683901 -1.55874 -3 -0.795609 -3 0 
C -3 0.795609 -2.683901 1.55874 -2.12132 2.12132 
C -1.55874 2.683901 -0.795609 3 0 3 
z
" id="m75b0414d2c" style="stroke:#000000;"/>
    </defs>
    <g clip-path="url(#p34c781379e)">
     <use style="stroke:#000000;" x="207.263779" xlink:href="#m75b0414d2c" y="203.424221"/>
     <use style="stroke:#000000;" x="216.895853" xlink:href="#m75b0414d2c" y="188.97611"/>
     <use style="stroke:#000000;" x="207.263779" xlink:href="#m75b0414d2c" y="164.895926"/>
     <use style="stroke:#000000;" x="207.263779" xlink:href="#m75b0414d2c" y="150.447816"/>
     <use style="stroke:#000000;" x="226.527926" xlink:href="#m75b0414d2c" y="164.895926"/>
     <use style="stroke:#000000;" x="231.343963" xlink:href="#m75b0414d2c" y="140.815743"/>
     <use style="stroke:#000000;" x="216.895853" xlink:href="#m75b0414d2c" y="169.711963"/>
     <use style="stroke:#000000;" x="245.792074" xlink:href="#m75b0414d2c" y="145.631779"/>
     <use style="stroke:#000000;" x="265.056221" xlink:href="#m75b0414d2c" y="145.631779"/>
    </g>
   </g>
   <g id="PathCollection_2">
    <defs>
     <path d="M 0 3 
C 0.795609 3 1.55874 2.683901 2.12132 2.12132 
C 2.683901 1.55874 3 0.795609 3 0 
C 3 -0.795609 2.683901 -1.55874 2.12132 -2.12132 
C 1.55874 -2.683901 0.795609 -3 0 -3 
C -0.795609 -3 -1.55874 -2.683901 -2.12132 -2.12132 
C -2.683901 -1.55874 -3 -0.795609 -3 0 
C -3 0.795609 -2.683901 1.55874 -2.12132 2.12132 
C -1.55874 2.683901 -0.795609 3 0 3 
z
" id="mca3316b96d" style="stroke:#ffffff;"/>
    </defs>
    <g clip-path="url(#p34c781379e)">
     <use style="fill:#ffffff;stroke:#ffffff;" x="115.759081" xlink:href="#mca3316b96d" y="294.928919"/>
     <use style="fill:#ffffff;stroke:#ffffff;" x="115.759081" xlink:href="#mca3316b96d" y="54.127081"/>
     <use style="fill:#ffffff;stroke:#ffffff;" x="356.560919" xlink:href="#mca3316b96d" y="294.928919"/>
     <use style="fill:#ffffff;stroke:#ffffff;" x="356.560919" xlink:href="#mca3316b96d" y="54.127081"/>
    </g>
   </g>
  </g>
 </g>
 <defs>
  <clipPath id="p34c781379e">
   <rect height="266.112" width="357.12" x="57.6" y="41.472"/>
  </clipPath>
 </defs>
</svg>
