<?xml version="1.0" encoding="utf-8" standalone="no"?>
<!DOCTYPE svg PUBLIC "-//W3C//DTD SVG 1.1//EN"
  "http://www.w3.org/Graphics/SVG/1.1/DTD/svg11.dtd">
<!-- Created with matplotlib (http://matplotlib.org/) -->
<svg height="345pt" version="1.1" viewBox="0 0 460 345" width="460pt" xmlns="http://www.w3.org/2000/svg" xmlns:xlink="http://www.w3.org/1999/xlink">
 <defs>
  <style type="text/css">
*{stroke-linecap:butt;stroke-linejoin:round;}
  </style>
 </defs>
 <g id="figure_1">
  <g id="patch_1">
   <path d="M 0 345.6 
L 460.8 345.6 
L 460.8 0 
L 0 0 
z
" style="fill:#ffffff;"/>
  </g>
  <g id="axes_1">
   <g id="PathCollection_1">
    <defs>
     <path d="M 0 3 
C 0.795609 3 1.55874 2.683901 2.12132 2.12132 
C 2.683901 1.55874 3 0.795609 3 0 
C 3 -0.795609 2.683901 -1.55874 2.12132 -2.12132 
C 1.55874 -2.683901 0.795609 -3 0 -3 
C -0.795609 -3 -1.55874 -2.683901 -2.12132 -2.12132 
C -2.683901 -1.55874 -3 -0.795609 -3 0 
C -3 0.795609 -2.683901 1.55874 -2.12132 2.12132 
C -1.55874 2.683901 -0.795609 3 0 3 
z
" id="mdacdd9e86a" style="stroke:#000000;"/>
    </defs>
    <g clip-path="url(#p39df9478c0)">
     <use style="stroke:#000000;" x="217.004805" xlink:href="#mdacdd9e86a" y="198.471993"/>
     <use style="stroke:#000000;" x="207.427208" xlink:href="#mdacdd9e86a" y="184.105597"/>
     <use style="stroke:#000000;" x="202.638409" xlink:href="#mdacdd9e86a" y="169.739201"/>
     <use style="stroke:#000000;" x="207.427208" xlink:href="#mdacdd9e86a" y="145.795208"/>
     <use style="stroke:#000000;" x="231.371201" xlink:href="#mdacdd9e86a" y="164.950403"/>
     <use style="stroke:#000000;" x="217.004805" xlink:href="#mdacdd9e86a" y="155.372805"/>
     <use style="stroke:#000000;" x="255.315195" xlink:href="#mdacdd9e86a" y="160.161604"/>
     <use style="stroke:#000000;" x="245.737597" xlink:href="#mdacdd9e86a" y="145.795208"/>
     <use style="stroke:#000000;" x="331.935973" xlink:href="#mdacdd9e86a" y="59.596832"/>
    </g>
   </g>
   <g id="PathCollection_2">
    <defs>
     <path d="M 0 3 
C 0.795609 3 1.55874 2.683901 2.12132 2.12132 
C 2.683901 1.55874 3 0.795609 3 0 
C 3 -0.795609 2.683901 -1.55874 2.12132 -2.12132 
C 1.55874 -2.683901 0.795609 -3 0 -3 
C -0.795609 -3 -1.55874 -2.683901 -2.12132 -2.12132 
C -2.683901 -1.55874 -3 -0.795609 -3 0 
C -3 0.795609 -2.683901 1.55874 -2.12132 2.12132 
C -1.55874 2.683901 -0.795609 3 0 3 
z
" id="m12423a612c" style="stroke:#ffffff;"/>
    </defs>
    <g clip-path="url(#p39df9478c0)">
     <use style="fill:#ffffff;stroke:#ffffff;" x="116.440033" xlink:href="#m12423a612c" y="294.247967"/>
     <use style="fill:#ffffff;stroke:#ffffff;" x="116.440033" xlink:href="#m12423a612c" y="54.808033"/>
     <use style="fill:#ffffff;stroke:#ffffff;" x="355.879967" xlink:href="#m12423a612c" y="294.247967"/>
     <use style="fill:#ffffff;stroke:#ffffff;" x="355.879967" xlink:href="#m12423a612c" y="54.808033"/>
    </g>
   </g>
  </g>
 </g>
 <defs>
  <clipPath id="p39df9478c0">
   <rect height="266.112" width="357.12" x="57.6" y="41.472"/>
  </clipPath>
 </defs>
</svg>
